<?xml version="1.0" encoding="UTF-8"?>
<svg width="256px" height="256px" viewBox="0 0 256 256" version="1.1" xmlns="http://www.w3.org/2000/svg" xmlns:xlink="http://www.w3.org/1999/xlink">
    <title>LogoS</title>
    <g id="UX-Design" stroke="none" stroke-width="1" fill="none" fill-rule="evenodd">
        <g id="Logo" transform="translate(-787.000000, -106.000000)" stroke="#205F59">
            <g id="Group" transform="translate(787.000000, 106.000000)">
                <circle id="Oval" stroke-width="21" cx="128" cy="128" r="117.5"></circle>
                <path d="M183.34944,66.1823088 C178.325163,78.4346461 165.66565,89.2821267 165.081948,89.7491166 C164.630899,91.4551009 164.630899,92.3080931 165.081948,92.3080931 C166.435096,92.7591698 182.447342,78.8105076 183.34944,77.9083543 C184.283589,76.9741484 189.319891,72.9705652 192.296198,64.2971815 C192.948901,62.3951136 195.283905,56.2291334 194.971367,49.8336178 C194.644668,43.1483268 191.594861,36.2076236 188.725946,33.4065707 C185.609981,30.3643114 175.457055,24.8190807 163.981034,24.0905638 C151.977827,23.3285803 138.551588,27.527174 131.354489,30.9697435 C122.610953,35.1520155 107.072518,44.2738227 99.1160072,57.4916611 C92.2987094,68.8169703 92.3502696,84.5448926 92.3502696,87.0426567 C92.3502696,89.2359316 94.4692499,98.4099052 97.0862859,106.048582 C98.7750808,110.977883 111.696712,132.856705 123.472662,145.418141 C135.369331,158.108349 150.1887,168.677756 151.88876,170.604608 C152.055305,170.771163 164.755102,181.575606 162.437892,197.027225 C162.067949,199.494078 153.489101,208.251599 142.024414,214.100194 C128.552874,220.972565 111.529,224.862216 105.543458,225.083787 C81.690422,225.966772 68.7500128,215.019251 66.9787537,210.968701 C65.5382244,207.674471 69.8848072,196.842247 82.7867814,190.226443 C100.732698,181.024233 130.069257,174.889836 129.392683,174.664298 C129.018097,174.414559 111.775328,175.201223 95.7866775,178.047373 C88.7697485,179.296461 75.3831815,184.194128 66.9787537,190.226443 C59.944439,195.275354 57.1684343,201.540706 57.1684343,203.082128 C56.7387433,207.934269 57.1311876,211.606958 58.345767,214.100194 C58.9623082,215.365803 62.964262,222.259211 69.7933,226.435543 C71.8413949,227.688066 81.8779704,235.109215 99.1160072,235.963822 C105.421926,236.276449 117.036442,234.562956 133.959556,230.823342 C149.195612,225.057968 158.688391,220.394197 162.437892,216.832031 C166.45605,213.014632 175.787464,200.792816 171.220165,186.744311 C165.296055,168.522408 140.795064,150.037626 140.387006,149.629543 C128.632915,138.220188 121.134223,129.970543 117.890929,124.88061 C104.571012,103.976708 103.699904,88.9951661 105.543458,81.6894743 C107.192016,75.1565197 110.426597,68.5750471 113.522473,63.0608972 C118.558044,54.0919032 133.303663,44.1315676 147.998461,39.0029922 C154.753503,36.6454409 171.471667,33.2194584 179.113941,39.0029922 C187.042852,45.0034481 185.733462,60.3685668 183.34944,66.1823088 Z" id="Path" stroke-width="5" fill="#205F59" fill-rule="nonzero" stroke-linecap="round" stroke-dasharray="1"></path>
            </g>
        </g>
    </g>
</svg>