<?xml version="1.0" encoding="UTF-8"?>
<svg width="50px" height="50px" viewBox="0 0 50 50" version="1.1" xmlns="http://www.w3.org/2000/svg" xmlns:xlink="http://www.w3.org/1999/xlink">
    <title>backButton</title>
    <defs>
        <linearGradient x1="50%" y1="-2.48949813e-15%" x2="50%" y2="100%" id="linearGradient-1">
            <stop stop-color="#84C0B7" offset="0%"></stop>
            <stop stop-color="#44A08D" offset="49.4618663%"></stop>
            <stop stop-color="#205F59" offset="100%"></stop>
        </linearGradient>
    </defs>
    <g id="UX-Design" stroke="none" stroke-width="1" fill="none" fill-rule="evenodd">
        <g id="Artboard" transform="translate(-616.000000, -96.000000)">
            <g id="Group" transform="translate(616.000000, 96.000000)">
                <circle id="teal-medium" fill="url(#linearGradient-1)" cx="25" cy="25" r="25"></circle>
                <g id="arrow-back" transform="translate(25.000000, 25.000000) scale(-1, 1) translate(-25.000000, -25.000000) translate(11.000000, 12.000000)" fill="#FFFBF6">
                    <path d="M10.8725445,2.88940531 C6.58344415,2.88940531 3.1064413,6.12025151 3.1064413,10.1057023 C3.1064413,14.091153 6.58344415,17.3219992 10.8725445,17.3219992 L23.1274555,17.3219992 L20.4248515,13.5955035 C20.1962471,13.2774669 20.1352717,12.8802313 20.2590701,12.5154892 C20.3828685,12.1507472 20.6780702,11.8578916 21.061672,11.7192663 C21.8711829,11.3367157 22.8593709,11.5483339 23.4070352,12.2215205 L27.3522156,17.6510624 C27.3771831,17.6694147 27.3982522,17.6919288 27.4143444,17.7174523 C27.5478862,17.8236715 27.663126,17.9482752 27.756053,18.0869267 C27.8577905,18.2508599 27.916337,18.4348365 27.9269073,18.6238192 L27.9269073,18.6469114 C27.9389301,18.6606842 27.9445231,18.6783541 27.9424395,18.6959822 C27.9424395,18.7190743 27.9579717,18.73928 27.9579717,18.7623721 C27.9579717,18.7854643 27.9424395,18.8071132 27.9424395,18.828762 C27.9447036,18.8464046 27.9390903,18.8641387 27.9269073,18.8778329 L27.9269073,18.9196874 C27.9167998,19.046677 27.8907356,19.1721314 27.8492462,19.2934916 C27.8181818,19.3454489 27.7871174,19.3858602 27.756053,19.4378175 C27.7026007,19.5382773 27.63467,19.631503 27.5541343,19.7149233 C27.5019894,19.7600343 27.4446983,19.7997187 27.38328,19.8332706 L23.4070352,25.3075535 C22.8601021,25.9817878 21.8710189,26.1935977 21.061672,25.8098077 C20.6776636,25.6716218 20.382044,25.3787712 20.258183,25.0138447 C20.134322,24.6489183 20.1956427,24.251464 20.4248515,23.9335705 L23.1274555,20.2056315 L10.8725445,20.2056315 C4.867804,20.2056315 0,15.6824468 0,10.1028158 C0,4.52318468 4.867804,-4.49570936e-14 10.8725445,-4.49570936e-14 C10.8725445,-4.49570936e-14 15.8363421,-2.10772985e-13 18.6386478,-4.49570936e-14 C20.0207312,-4.39648318e-14 20.0207312,2.88651879 18.6386478,2.88651879 C14.5620508,2.88940531 10.8725445,2.88940531 10.8725445,2.88940531 Z"></path>
                </g>
            </g>
        </g>
    </g>
</svg>