<?xml version="1.0" encoding="UTF-8"?>
<svg width="29px" height="29px" viewBox="0 0 29 29" version="1.1" xmlns="http://www.w3.org/2000/svg" xmlns:xlink="http://www.w3.org/1999/xlink">
    <title>editPen</title>
    <defs>
        <linearGradient x1="50%" y1="0%" x2="50%" y2="100%" id="linearGradient-1">
            <stop stop-color="#ECB37B" offset="0%"></stop>
            <stop stop-color="#CF634C" offset="51.245777%"></stop>
            <stop stop-color="#732D35" offset="100%"></stop>
        </linearGradient>
    </defs>
    <g id="UX-Design" stroke="none" stroke-width="1" fill="none" fill-rule="evenodd">
        <g id="Artboard" transform="translate(-474.000000, -168.000000)" fill="url(#linearGradient-1)">
            <g id="Combined-Shape" transform="translate(474.562319, 168.828427)">
                <path d="M2.97786,20.8048145 L7.03400231,24.8539188 L5.40832519,26.613565 C5.16189452,26.8472625 4.8600134,27.0143606 4.53113508,27.0991051 C1.63156863,27.5680249 0.140180641,27.76088 0.0569711231,27.6776705 C-0.0914552369,27.5292441 0.0569711231,26.4274404 0.422626918,23.7127705 C0.476493147,23.3128616 0.687710203,22.9503589 0.97264725,22.6644254 L2.97786,20.8048145 Z M19.7513896,3.87867966 L23.9940303,8.12132034 L7.73057429,24.3847763 L3.48793361,20.1421356 L19.7513896,3.87867966 Z M25.8727099,0.585786438 L27.2869235,2 C28.0679721,2.78104858 28.0679721,4.04737854 27.2869235,4.82842712 L24.5261803,7.35198509 L20.4922015,3.41421356 L23.0442828,0.585786438 C23.8253314,-0.195262146 25.0916613,-0.195262146 25.8727099,0.585786438 Z"></path>
            </g>
        </g>
    </g>
</svg>