<?xml version="1.0" encoding="UTF-8"?>
<svg width="50px" height="50px" viewBox="0 0 50 50" version="1.1" xmlns="http://www.w3.org/2000/svg" xmlns:xlink="http://www.w3.org/1999/xlink">
    <title>fabCalcNavBar</title>
    <defs>
        <linearGradient x1="50%" y1="-2.48949813e-15%" x2="50%" y2="100%" id="linearGradient-1">
            <stop stop-color="#84C0B7" offset="0%"></stop>
            <stop stop-color="#44A08D" offset="49.4618663%"></stop>
            <stop stop-color="#205F59" offset="100%"></stop>
        </linearGradient>
        <filter id="filter-2">
            <feColorMatrix in="SourceGraphic" type="matrix" values="0 0 0 0 1.000000 0 0 0 0 0.984314 0 0 0 0 0.964706 0 0 0 1.000000 0"></feColorMatrix>
        </filter>
    </defs>
    <g id="UX-Design" stroke="none" stroke-width="1" fill="none" fill-rule="evenodd">
        <g id="Artboard" transform="translate(-450.000000, -376.000000)">
            <g id="Group" transform="translate(450.000000, 376.000000)">
                <circle id="teal-medium" fill="url(#linearGradient-1)" cx="25" cy="25" r="25"></circle>
                <g id="measure-tape-copy" transform="translate(7.000000, 9.000000)" filter="url(#filter-2)">
                    <g>
                        <path d="M13.4166667,7 C9.22830707,7 5.83333333,10.3949738 5.83333333,14.5833333 C5.83333333,18.771987 9.22830707,22.1666667 13.4166667,22.1666667 C17.6053203,22.1666667 21,18.771987 21,14.5833333 C20.9950009,10.3973263 17.6026737,7.00499915 13.4166667,7 Z M13.4166667,19.8333333 C10.2259597,19.8333333 8.16666667,17.8908366 8.16666667,14.6807598 C8.16666667,11.470683 10.2356317,9.33333333 13.4263387,9.33333333 C16.6170456,9.33333333 18.6666667,11.470683 18.6666667,14.6807598 C18.6403398,17.8729868 16.5993035,19.8293028 13.4263387,19.8333333 L13.4166667,19.8333333 Z" id="Shape" fill="#000000" fill-rule="nonzero"></path>
                        <path d="M34.8215139,22.5779622 L27.7644231,22.5779622 L27.7644231,14 C27.7644231,6.26805561 21.5491036,0 13.8822115,0 C6.21531949,0 0,6.26833337 0,14 C0,21.7319445 6.21531949,28 13.8822115,28 L26.9931891,28 C27.4190204,28 27.7644231,27.6516667 27.7644231,27.2222222 L27.7644231,24.6633333 L33.5446155,24.6633333 L33.5446155,27.2222222 C33.5446155,27.6516667 34.1111743,28 34.5370056,28 C34.9628369,28 35.5927478,27.6516667 35.5927478,27.2222222 L35.5927478,23.2644043 C35.5927478,22.8352376 35.2473451,22.5779622 34.8215139,22.5779622 Z M25.6666667,25.8461538 L13.9027778,25.8461538 C7.12353446,25.8461538 2.13888889,20.6285356 2.13888889,13.848801 C2.13888889,7.06934035 7.15432277,2.15384615 13.9335661,2.15384615 C20.7128094,2.15384615 25.6666667,7.06934035 25.6666667,13.848801 L25.6666667,25.8461538 Z" id="Shape" fill="#000000" fill-rule="nonzero"></path>
                    </g>
                </g>
            </g>
        </g>
    </g>
</svg>