<?xml version="1.0" encoding="UTF-8"?>
<svg width="50px" height="50px" viewBox="0 0 50 50" version="1.1" xmlns="http://www.w3.org/2000/svg" xmlns:xlink="http://www.w3.org/1999/xlink">
    <title>homeButton</title>
    <defs>
        <linearGradient x1="50%" y1="-2.48949813e-15%" x2="50%" y2="100%" id="linearGradient-1">
            <stop stop-color="#84C0B7" offset="0%"></stop>
            <stop stop-color="#44A08D" offset="49.4618663%"></stop>
            <stop stop-color="#205F59" offset="100%"></stop>
        </linearGradient>
    </defs>
    <g id="UX-Design" stroke="none" stroke-width="1" fill="none" fill-rule="evenodd">
        <g id="Artboard" transform="translate(-454.000000, -347.000000)">
            <g id="Group" transform="translate(454.000000, 347.000000)">
                <circle id="teal-medium" fill="url(#linearGradient-1)" cx="25" cy="25" r="25"></circle>
                <g transform="translate(6.000000, 8.000000)" fill="#FFFBF6" fill-rule="nonzero" id="Combined-Shape">
                    <path d="M19.9245724,0.307405396 C25.7146316,4.87676424 31.0747553,9.12274161 36.8648145,13.6921005 C37.1255832,13.9799805 37.1255832,14.9177001 36.8648145,15.2998047 C36.6040457,15.6819093 35.4324951,16.2612305 34.7148437,15.72999 C33.9799168,15.1661824 33.2707071,14.6468107 32.5872147,14.171875 L32.5872147,28.7995688 C32.5872147,29.4625486 32.065574,30 31.4220974,30 L6.1778893,30 C5.53441278,30 5.012772,29.4625486 5.012772,28.7995688 L5.012772,14.171875 C4.36119093,14.6129557 3.6444613,15.1323274 2.86258312,15.72999 C2.38427734,16.0823975 1.55549132,15.8294678 1.16763824,15.2998047 C0.779785156,14.7701416 0.779785156,13.9942507 1.16763824,13.657303 C6.93487453,9.10595537 12.3402581,4.85875305 18.1074944,0.307405396 C18.6229812,-0.102468465 19.4283479,-0.102468465 19.9245724,0.307405396 Z M19.5812988,4.43096124 C19.1851661,4.15285655 19,4.15285655 18.6086451,4.43096124 C18.3537536,4.61209226 9.04517143,11.5913304 8.57952881,11.9431152 C8,12.2788696 8,12.7426465 8,13.1898804 C8,13.6736008 8,17.9453099 8,26.0050076 C8,26.6010742 8.38702393,27 9.01592226,27 C15.6790515,27 22.3421808,27 29.0053101,27 C29.6762085,27 30,26.6415405 30,26.008728 C30,21.5413163 30,17.5419703 30,13.1898804 C30,12.7704468 30,12.3948975 29.3838952,11.9537687 C23.1046789,7.11818163 19.8371468,4.61057915 19.5812988,4.43096124 Z"></path>
                </g>
            </g>
        </g>
    </g>
</svg>