<?xml version="1.0" encoding="UTF-8"?>
<svg width="243px" height="243px" viewBox="0 0 243 243" version="1.1" xmlns="http://www.w3.org/2000/svg" xmlns:xlink="http://www.w3.org/1999/xlink">
    <title>LogoCopperUltralightFinal</title>
    <g id="UX-Design" stroke="none" stroke-width="1" fill="none" fill-rule="evenodd">
        <g id="Logo-Copy" transform="translate(-183.000000, -348.000000)" fill="#FFFBF6" fill-rule="nonzero">
            <g id="Shape" transform="translate(183.000000, 348.000000)">
                <path d="M121.5,0 C188.602597,0 243,54.3974029 243,121.5 C243,188.602597 188.602597,243 121.5,243 C54.3974029,243 0,188.602597 0,121.5 C0,54.3974029 54.3974029,0 121.5,0 Z M175.005956,28.7371465 C168.685601,24.0329965 153.985205,25.0684955 142.806611,28.9054734 C134.248151,31.843108 118.264794,37.9237065 108.887695,48.2675781 C105.386773,52.1294438 97.4142561,61.2470544 96.9638672,73.1054688 C96.3889136,88.2435804 104.493207,107.129052 111.208226,117.493403 L111.53026,117.98031 C112.522525,119.4517 121.884988,131.251696 132.295898,141.52832 C136.856799,146.030392 147.110801,153.892384 154.697266,162.098633 C158.10454,165.784269 166.308594,173.564453 168.926758,184.03125 C170.065961,188.585513 170.341855,193.952554 168.926758,198.647461 C166.891348,205.400398 161.953622,211.264457 158.671057,214.340046 C151.462176,221.094385 142.398806,226.043439 127.765359,230.687346 C124.758537,231.641557 122.00987,232.45275 119.441286,233.13665 C120.126623,233.150038 120.812586,233.15625 121.5,233.15625 C183.166044,233.15625 233.15625,183.166044 233.15625,121.5 C233.15625,87.2857017 217.767334,56.6656772 193.533548,36.1839721 C193.684491,37.176465 193.788208,38.1628907 193.836337,39.1315091 C194.020664,42.8411347 193.421878,46.6804327 192.287638,50.6139446 C192.177452,50.9960676 191.639652,52.6080565 190.674239,55.4499114 C189.698001,58.0926826 188.493357,60.4692146 187.102115,62.608453 C185.906506,64.4468769 184.634014,66.0220569 183.293465,67.4167523 C183.053094,67.6668319 182.244214,68.4399418 180.866823,69.7360821 C179.973983,70.5555434 177.073151,73.0342916 174.136214,75.4751604 C166.770978,81.6233316 162.395007,84.8532098 161.008301,85.1647949 C159.885573,85.4170655 159.112164,83.8867721 159.031738,83.5163574 C158.848807,82.6738339 159.130222,81.426506 159.336548,80.9399414 C159.481709,80.5976182 159.925475,80.0654499 160.667846,79.3434364 L164.015028,76.0882303 C166.598456,73.5667835 168.606027,71.4734372 170.642721,69.093241 C174.433574,64.663036 177.33734,60.2928605 179.154084,55.9356548 C180.495654,52.718086 181.287078,47.2394006 180.937966,42.2472596 C180.513951,36.1840582 178.546871,31.3725994 175.005956,28.7371465 Z M121.5,9.84375 C59.8339559,9.84375 9.84375,59.8339559 9.84375,121.5 C9.84375,153.471855 23.2815572,182.305141 44.8173484,202.660036 C44.9610667,201.696104 45.1575748,200.747974 45.410432,199.850831 C46.9769564,194.292764 50.6936658,189.017225 55.0959369,185.90965 C58.7195101,183.351759 64.9271693,179.776552 73.2068652,176.759766 C74.7261688,176.206193 80.8429655,173.968475 88.4399414,172.740723 C102.260508,170.507171 120.638854,169.095118 122.733231,169.397912 C123.373199,169.570487 123.737227,169.760644 123.825317,169.968384 C123.862248,170.055476 124.228766,170.498554 123.633667,170.993896 C123.513991,171.093511 122.834713,171.548601 121.321289,172.012085 C120.1468,172.371771 117.395,173.099986 113.06589,174.19673 C105.058831,176.278951 97.7282635,178.403327 90.7425632,180.782313 C83.963261,183.091009 78.0538588,185.468997 73.2068652,187.913373 C64.6957203,192.205607 56.2868021,201.740881 58.5591394,207.291785 C61.9385011,215.546948 81.82029,222.913667 96.9758906,222.361905 C104.953857,222.071456 123.146689,217.91256 135.452532,211.857422 C141.423087,209.029054 145.360622,206.904705 147.265137,205.484375 C154.313106,200.228209 156.408621,195.686588 156.711927,193.741026 C157.684872,187.500036 153.297079,175.685089 145.878609,167.039525 C143.053595,163.747224 139.687674,160.415251 135.452532,156.627872 L122.924422,145.904321 C112.546671,136.801171 105.766525,130.225642 102.583984,126.177734 C96.4741318,118.406549 88.6440413,107.538576 84.8134766,97.3876953 C81.1854687,87.773584 81.3942471,78.7208405 81.3511527,76.4119199 C81.1616322,66.2577411 84.5906656,54.073562 89.1445457,46.6332972 C96.2417961,35.0375982 109.230124,25.4063221 123.43742,18.6130928 L124.709609,18.0156147 C130.286992,15.4609962 137.032103,13.3389958 143.838892,12.0824204 C136.621524,10.61321 129.15062,9.84375 121.5,9.84375 Z"></path>
            </g>
        </g>
    </g>
</svg>