<?xml version="1.0" encoding="UTF-8"?>
<svg width="159px" height="159px" viewBox="0 0 159 159" version="1.1" xmlns="http://www.w3.org/2000/svg" xmlns:xlink="http://www.w3.org/1999/xlink">
    <title>LogoCopperUltralightFinal</title>
    <defs>
        <filter x="-24.4%" y="-24.4%" width="148.8%" height="148.8%" filterUnits="objectBoundingBox" id="filter-1">
            <feOffset dx="0" dy="0" in="SourceAlpha" result="shadowOffsetOuter1"></feOffset>
            <feGaussianBlur stdDeviation="8" in="shadowOffsetOuter1" result="shadowBlurOuter1"></feGaussianBlur>
            <feColorMatrix values="0 0 0 0 0.749019608   0 0 0 0 0.352941176   0 0 0 0 0.282352941  0 0 0 1 0" type="matrix" in="shadowBlurOuter1" result="shadowMatrixOuter1"></feColorMatrix>
            <feMerge>
                <feMergeNode in="shadowMatrixOuter1"></feMergeNode>
                <feMergeNode in="SourceGraphic"></feMergeNode>
            </feMerge>
        </filter>
    </defs>
    <g id="Second-sprint-CALI-SUNRISE-redesign" stroke="none" stroke-width="1" fill="none" fill-rule="evenodd">
        <g id="Add-new-project-#1--NEW-DESIGN-Copy-3" transform="translate(-108.000000, -51.000000)" fill="#FFFBF6" fill-rule="nonzero">
            <g id="LogoCopperUltralightFinal" transform="translate(124.000000, 67.000000)" filter="url(#filter-1)">
                <path d="M63.5,0 C98.5700816,0 127,28.4299184 127,63.5 C127,98.5700816 98.5700816,127 63.5,127 C28.4299184,127 0,98.5700816 0,63.5 C0,28.4299184 28.4299184,0 63.5,0 Z M91.4640181,15.0190025 C88.1607874,12.5604549 80.4778645,13.1016417 74.6355541,15.1069758 C70.1626137,16.6422828 61.8091721,19.8202088 56.908384,25.2262651 C55.0786836,27.2446065 50.9119775,32.0097774 50.676589,38.2073849 C50.3760989,46.1190729 54.6116762,55.9892577 58.1211718,61.4060173 L58.2894775,61.6604913 C58.8080687,62.4294892 63.7012077,68.5965653 69.1423008,73.967476 C71.5259816,76.3204107 76.8850689,80.4293527 80.8500113,84.7182155 C82.630768,86.6444532 86.9184832,90.7106401 88.286824,96.1809414 C88.88221,98.5611527 89.0264015,101.36615 88.286824,103.819866 C87.22305,107.349179 84.6424278,110.413935 82.9268489,112.021341 C79.1592443,115.551387 74.4224213,118.137929 66.774488,120.564991 C65.2030214,121.063694 63.7664753,121.487651 62.4240465,121.84508 C62.782227,121.852077 63.1407344,121.855324 63.5,121.855324 C95.7287556,121.855324 121.855324,95.7287556 121.855324,63.5 C121.855324,45.6184531 113.812557,29.6153951 101.147163,18.9109648 C101.226051,19.4296751 101.280257,19.9452145 101.305411,20.4514471 C101.401746,22.3902227 101.0888,24.3967694 100.496009,26.4525554 C100.438421,26.6522658 100.157349,27.4947456 99.6527914,28.9799948 C99.1425766,30.3611962 98.5129892,31.6032521 97.7858792,32.7212902 C97.1610137,33.6821126 96.4959661,34.5053548 95.7953499,35.2342697 C95.669724,35.3649697 95.2469758,35.7690231 94.5271052,36.4464297 C94.0604769,36.8747078 92.544404,38.1701853 91.0094615,39.4458657 C87.1601409,42.6591075 84.8731108,44.3471508 84.1483712,44.5099957 C83.5615959,44.6418408 83.157386,43.8420578 83.1153529,43.6484666 C83.0197471,43.2081354 83.1668238,42.5562398 83.2746567,42.3019447 C83.3505227,42.123035 83.5824497,41.8449059 83.9704379,41.4675573 L85.7197884,39.7662768 C87.0699748,38.4484836 88.1191993,37.3544301 89.1836445,36.1104593 C91.164872,33.7950847 92.6824782,31.5110835 93.6319697,29.2338608 C94.3331196,27.5522507 94.7467447,24.6889048 94.5642866,22.0798435 C94.3426822,18.9110099 93.31462,16.3963791 91.4640181,15.0190025 Z M63.5,5.14467593 C31.2712444,5.14467593 5.14467593,31.2712444 5.14467593,63.5 C5.14467593,80.2095701 12.1677274,95.2788187 23.4230586,105.916974 C23.4981707,105.41319 23.6008724,104.917666 23.7330241,104.448788 C24.5517427,101.543955 26.4942204,98.7867803 28.7949958,97.1626565 C30.6887975,95.8258167 33.9331296,93.9572925 38.2603781,92.3806182 C39.0544174,92.0913024 42.2512618,90.9217958 46.2216978,90.2801308 C53.4447924,89.1128013 63.0499362,88.3748146 64.1445282,88.5330652 C64.4789968,88.6232588 64.6692505,88.7226413 64.7152893,88.8312129 C64.7345905,88.8767301 64.9261454,89.108298 64.6151264,89.3671805 C64.5525799,89.4192422 64.1975659,89.6570877 63.4065996,89.8993201 C62.7927718,90.0873041 61.3545884,90.4678939 59.0920494,91.0410895 C54.9072902,92.1293284 51.0760883,93.239599 47.4251256,94.4829371 C43.8820335,95.6895398 40.7935805,96.9323566 38.2603781,98.2098697 C33.8121666,100.453136 29.4173822,105.436592 30.6049823,108.337682 C32.3711508,112.652109 42.7620446,116.502205 50.6828729,116.213835 C54.8524274,116.062037 64.3606151,113.888457 70.7920638,110.723838 C73.9124776,109.245637 75.9703663,108.135381 76.9657299,107.393068 C80.6492366,104.646019 81.7444235,102.272414 81.902941,101.255598 C82.4114349,97.9938461 80.1182267,91.8189557 76.2410839,87.3004926 C74.7646361,85.5798247 73.0054924,83.8384233 70.7920638,81.8590114 L64.2444511,76.2545219 C58.8206884,71.4969081 55.2771553,68.0603147 53.6138519,65.9447418 C50.4206368,61.8832583 46.3283673,56.2032888 44.3263849,50.8980959 C42.4302655,45.8734369 42.5393802,41.1421677 42.5168576,39.9354478 C42.4178078,34.6285314 44.2099364,28.2606682 46.5899478,24.3721347 C50.2992103,18.3118312 57.0873488,13.2782013 64.5125613,9.72783038 L65.17745,9.4155682 C68.0923788,8.08043836 71.6176013,6.97140934 75.1750587,6.31468064 C71.4030186,5.54682169 67.4984724,5.14467593 63.5,5.14467593 Z" id="Shape"></path>
            </g>
        </g>
    </g>
</svg>