<?xml version="1.0" encoding="UTF-8"?>
<svg width="120px" height="120px" viewBox="0 0 120 120" version="1.1" xmlns="http://www.w3.org/2000/svg" xmlns:xlink="http://www.w3.org/1999/xlink">
    <title>LogoScopperUltralight</title>
    <defs>
        <filter id="filter-1">
            <feColorMatrix in="SourceGraphic" type="matrix" values="0 0 0 0 1.000000 0 0 0 0 0.984314 0 0 0 0 0.964706 0 0 0 1.000000 0"></feColorMatrix>
        </filter>
    </defs>
    <g id="UX-Design" stroke="none" stroke-width="1" fill="none" fill-rule="evenodd">
        <g id="Logo" transform="translate(-1180.000000, -10.000000)">
            <g id="LogoScopperUltralight" transform="translate(1180.000000, 10.000000)" filter="url(#filter-1)">
                <g id="Group" stroke="#205F59">
                    <circle id="Oval" stroke-width="9.84375" cx="60" cy="60" r="55.078125"></circle>
                    <path d="M85.94505,31.0229573 C83.5899204,36.7662403 77.6557736,41.8509969 77.3821634,42.0698984 C77.1707341,42.8695786 77.1707341,43.2694186 77.3821634,43.2694186 C78.0164513,43.4808608 85.5221914,36.9424254 85.94505,36.5195411 C86.3829323,36.0816321 88.7436988,34.2049524 90.1388429,30.1393038 C90.4447972,29.2477095 91.5393305,26.3574063 91.3928284,23.3595083 C91.2396883,20.2257782 89.8100912,16.9723236 88.4652873,15.65933 C87.0046786,14.233271 82.2454947,11.6339441 76.8661098,11.2924518 C71.2396064,10.935272 64.946057,12.9033628 61.5724166,14.5170673 C57.4738842,16.4775073 50.1902426,20.7533544 46.4606284,26.9492161 C43.26502,32.2579548 43.2891889,39.6304184 43.2891889,40.8012453 C43.2891889,41.8293429 44.2824609,46.1296431 45.5091965,49.7102727 C46.3008191,52.0208825 52.357834,62.2765804 57.8778105,68.1647538 C63.4543737,74.1132884 70.4009533,79.0676982 71.1978564,79.9709101 C71.2759244,80.0489828 77.2289541,85.1135655 76.142762,92.3565116 C75.9693513,93.5128492 71.9480159,97.6179369 66.5739441,100.359466 C60.2591598,103.58089 52.2792186,105.404164 49.4734959,105.508025 C38.2923853,105.921924 32.2265685,100.790274 31.3962908,98.8915787 C30.7210427,97.3474081 32.7585034,92.2698033 38.8063038,89.1686451 C47.2184524,84.8551094 60.969964,81.9796108 60.6528201,81.8738897 C60.4772331,81.7568246 52.3946848,82.1255732 44.9000051,83.4597061 C41.6108196,84.0452162 35.3358663,86.3409973 31.3962908,89.1686451 C28.0989558,91.535322 26.7977036,94.4722059 26.7977036,95.1947474 C26.5962859,97.4691886 26.7802442,99.1907614 27.3495783,100.359466 C27.638582,100.95272 29.5144978,104.184005 32.7156094,106.141661 C33.6756539,106.728781 38.3802986,110.207445 46.4606284,110.608041 C49.4165277,110.754585 54.8608321,109.951385 62.7935417,108.198442 C69.9354433,105.495922 74.3851834,103.30978 76.142762,101.640015 C78.0262733,99.8506087 82.4003738,94.1216325 80.2594522,87.5363959 C77.4825257,78.9948788 65.9976865,70.3301374 65.8064092,70.1388485 C60.2966789,64.790713 56.7816668,60.9236921 55.2613729,58.5377857 C49.0176621,48.7390818 48.6093299,41.7164841 49.4734959,38.2919411 C50.2462573,35.2296186 51.7624672,32.1445533 53.2136591,29.5597956 C55.5740829,25.3555796 62.4860919,20.6866723 69.3742787,18.2826526 C72.5407046,17.1775504 80.377344,15.5716211 83.9596597,18.2826526 C87.6763367,21.0953663 87.0625605,28.2977657 85.94505,31.0229573 Z" id="Path" stroke-width="2.34375" fill="#205F59" fill-rule="nonzero" stroke-linecap="round" stroke-dasharray="0.46875"></path>
                </g>
            </g>
        </g>
    </g>
</svg>