<?xml version="1.0" encoding="UTF-8"?>
<svg width="128px" height="128px" viewBox="0 0 128 128" version="1.1" xmlns="http://www.w3.org/2000/svg" xmlns:xlink="http://www.w3.org/1999/xlink">
    <title>projectsNavButton</title>
    <defs>
        <circle id="path-1" cx="57" cy="57" r="57"></circle>
        <filter x="-9.2%" y="-9.2%" width="118.4%" height="118.4%" filterUnits="objectBoundingBox" id="filter-2">
            <feOffset dx="0" dy="0" in="SourceAlpha" result="shadowOffsetOuter1"></feOffset>
            <feGaussianBlur stdDeviation="3.5" in="shadowOffsetOuter1" result="shadowBlurOuter1"></feGaussianBlur>
            <feColorMatrix values="0 0 0 0 0.898039216   0 0 0 0 0.631372549   0 0 0 0 0.439215686  0 0 0 0.96246722 0" type="matrix" in="shadowBlurOuter1"></feColorMatrix>
        </filter>
        <filter id="filter-3">
            <feColorMatrix in="SourceGraphic" type="matrix" values="0 0 0 0 1.000000 0 0 0 0 0.984314 0 0 0 0 0.964706 0 0 0 1.000000 0"></feColorMatrix>
        </filter>
    </defs>
    <g id="UX-Design" stroke="none" stroke-width="1" fill="none" fill-rule="evenodd">
        <g id="Artboard" transform="translate(-774.000000, -44.000000)">
            <g id="Group" transform="translate(781.000000, 51.000000)">
                <g id="teal-medium-copy-9">
                    <use fill="black" fill-opacity="1" filter="url(#filter-2)" xlink:href="#path-1"></use>
                    <use fill="#BF5A48" fill-rule="evenodd" xlink:href="#path-1"></use>
                </g>
                <text id="Projects-Copy" font-family="LibreFranklin-Medium, Libre Franklin" font-size="15" font-weight="400" fill="#FFFBF6">
                    <tspan x="27.21" y="89">Projects</tspan>
                </text>
                <g filter="url(#filter-3)" id="needle-1">
                    <g transform="translate(32.000000, 22.000000)">
                        <path d="M46.1365126,3.68012156 L46.1365126,1.07798165 C46.1365126,0.482612385 45.5931319,0 44.9230676,0 L32.9802208,0 C32.3101565,0 31.7667759,0.482612385 31.7667759,1.07798165 L31.7667759,3.68012156 C29.5924038,3.91921789 27.9032884,5.5696078 27.9032884,7.56484404 L27.9032884,34.9266055 L13.934838,34.9266055 L14.5420459,28.6743119 L15.2894066,28.6743119 C17.2333455,28.6743119 19.0614003,28.001328 20.4369615,26.779328 C21.8125228,25.557328 22.5700764,23.9332408 22.5700764,22.206422 C22.5700764,18.7916995 19.5751729,15.9883005 15.7966266,15.7559954 L16.5527242,7.97048853 C20.2982648,7.83358486 23.2981434,5.08516284 23.2981434,1.72477064 C23.2981434,1.12940138 22.7548841,0.646788991 22.0846985,0.646788991 C21.4145128,0.646788991 20.8712535,1.12940138 20.8712535,1.72477064 C20.8712535,3.83222477 19.0702585,5.57241055 16.7638636,5.79619954 L16.8005096,5.41933716 C16.9247664,4.14074312 16.4358694,2.86505963 15.4591676,1.91934633 C14.4824657,0.973633028 13.0937993,0.431192661 11.6490717,0.431192661 C10.2044655,0.431192661 8.81579905,0.973525229 7.8390972,1.91923853 C6.86251668,2.86495183 6.37349836,4.14063532 6.49775513,5.41933716 L6.53731343,5.82692202 C2.90959835,5.94797936 0,8.60606651 0,11.8577982 C0,13.4693807 0.706589006,14.9852385 1.99041378,16.1271445 C3.27496663,17.2667867 4.98131295,17.8944954 6.79529183,17.8944954 L7.70925859,17.8944954 L8.5467783,26.5183486 L7.88739231,26.5183486 C4.60878534,26.5183486 1.94151195,28.8878601 1.94151195,31.8004587 C1.94151195,33.2117523 2.55988351,34.5383165 3.68268414,35.5357729 C4.80548477,36.5332294 6.29875015,37.0825688 7.88739231,37.0825688 L9.57262468,37.0825688 L10.4401165,46.0147248 C10.4942361,46.5720413 11.0192938,47 11.6490717,47 C12.2788497,47 12.8039073,46.5720413 12.8580269,46.0147248 L13.7255187,37.0825688 L27.9032884,37.0825688 L27.9032884,38.1412546 C27.9032884,40.1365986 29.5924038,41.7868807 31.7667759,42.0259771 L31.7667759,44.6284404 C31.7667759,45.2238096 32.3101565,45.706422 32.9802208,45.706422 L44.9230676,45.706422 C45.5931319,45.706422 46.1365126,45.2238096 46.1365126,44.6284404 L46.1365126,42.0260849 C48.3108846,41.7869885 50,40.1365986 50,38.1413624 L50,7.56484404 C50,5.5695 48.3108846,3.91921789 46.1365126,3.68012156 Z M11.5457382,33.3591954 L11.0687023,28.6321839 L12.0229008,28.6321839 L11.5457382,33.3591954 L11.5457382,33.3591954 Z M20.0381679,22.2125356 C20.0381679,23.3492968 19.5375369,24.4185571 18.6286325,25.2233504 C17.7197281,26.0280372 16.5119843,26.4712644 15.2278772,26.4712644 L14.6946565,26.4712644 L15.5238304,17.9626437 C18.0388909,18.0986036 20.0381679,19.9523218 20.0381679,22.2125356 Z M6.72714717,15.8017241 C5.54244926,15.8017241 4.42788171,15.3942254 3.58976833,14.6551783 C2.75165495,13.9143902 2.29007634,12.9304087 2.29007634,11.8845134 C2.29007634,9.73929649 4.25360343,7.9922205 6.67723012,7.9683908 L7.44274809,15.8017241 L6.72714717,15.8017241 L6.72714717,15.8017241 Z M9.0579747,7.95013979 L10.322263,7.95013979 L10.322263,9.45767319 C10.322263,10.0523951 10.8700968,10.5344828 11.5459257,10.5344828 C12.2217546,10.5344828 12.7695884,10.0523951 12.7695884,9.45767319 L12.7695884,4.935073 C12.7695884,4.34035108 12.2217546,3.85826344 11.5459257,3.85826344 C10.8700968,3.85826344 10.322263,4.34035108 10.322263,4.935073 L10.322263,5.79652066 L8.84677052,5.79652066 L8.78925837,5.21009017 C8.72183455,4.52243958 8.9767235,3.8635398 9.50705891,3.35485496 C10.0373943,2.84617012 10.7614356,2.56609195 11.5458034,2.56609195 C12.3302935,2.56609195 13.0543347,2.8462778 13.5845478,3.35485496 C14.1147608,3.86343212 14.3697721,4.5223319 14.3023483,5.21009017 L12.2179613,26.4712644 L10.8738902,26.4712644 L9.0579747,7.95013979 L9.0579747,7.95013979 Z M7.885004,34.9798851 C6.95081071,34.9798851 6.07278956,34.649914 5.4128272,34.0506035 C4.7527443,33.451293 4.38931298,32.6542187 4.38931298,31.8060345 C4.38931298,30.0559295 5.95743176,28.6321839 7.885004,28.6321839 L8.74795752,28.6321839 L9.35114504,34.9798851 L7.885004,34.9798851 L7.885004,34.9798851 Z M47.7099237,34.9368741 L30.3547551,38.3563218 C30.3475445,38.2945457 30.3435115,38.2320041 30.3435115,38.1685879 L30.3435115,36.3756575 L47.7099237,32.954023 L47.7099237,34.9368741 Z M47.7099237,30.8347964 L30.3435115,34.1695402 L30.3435115,32.2370427 L47.7099237,28.9022989 L47.7099237,30.8347964 Z M47.7099237,26.6480148 L30.3435115,29.9827586 L30.3435115,28.0502611 L47.7099237,24.7155172 L47.7099237,26.6480148 L47.7099237,26.6480148 Z M47.7099237,22.4612332 L30.3435115,25.795977 L30.3435115,23.8634794 L47.7099237,20.5287356 L47.7099237,22.4612332 Z M47.7099237,18.3240028 L30.3435115,21.7442529 L30.3435115,19.7622041 L47.7099237,16.341954 L47.7099237,18.3240028 Z M47.7099237,14.1372212 L30.3435115,17.5574713 L30.3435115,15.5754225 L47.7099237,12.1551724 L47.7099237,14.1372212 L47.7099237,14.1372212 Z M47.7099237,9.95043959 L30.3435115,13.3706897 L30.3435115,11.3886409 L47.7099237,7.9683908 L47.7099237,9.95043959 Z M43.7022901,2.16091954 L43.7022901,3.64655172 L34.1603053,3.64655172 L34.1603053,2.16091954 L43.7022901,2.16091954 L43.7022901,2.16091954 Z M32.3259309,5.80747126 L45.6177592,5.80747126 C45.96059,5.80747126 46.2832615,5.88509544 46.5648855,6.02120654 L30.3435115,9.18390805 L30.3435115,7.56250881 C30.3435115,6.59478687 31.2328313,5.80747126 32.3259309,5.80747126 L32.3259309,5.80747126 Z M34.1603053,43.4885057 L34.1603053,42.0028736 L43.7022901,42.0028736 L43.7022901,43.4885057 L34.1603053,43.4885057 Z M45.7113128,39.841954 L33.5877863,39.841954 L47.7099237,37.1408046 L47.7099237,38.1061236 C47.7099237,39.0632548 46.8133403,39.841954 45.7113128,39.841954 Z" id="Shape" fill="#000000" fill-rule="nonzero"></path>
                    </g>
                </g>
            </g>
        </g>
    </g>
</svg>