<?xml version="1.0" encoding="UTF-8"?>
<svg width="50px" height="50px" viewBox="0 0 50 50" version="1.1" xmlns="http://www.w3.org/2000/svg" xmlns:xlink="http://www.w3.org/1999/xlink">
    <title>projectsNavBar</title>
    <defs>
        <linearGradient x1="50%" y1="-2.48949813e-15%" x2="50%" y2="100%" id="linearGradient-1">
            <stop stop-color="#84C0B7" offset="0%"></stop>
            <stop stop-color="#44A08D" offset="49.4618663%"></stop>
            <stop stop-color="#205F59" offset="100%"></stop>
        </linearGradient>
        <filter id="filter-2">
            <feColorMatrix in="SourceGraphic" type="matrix" values="0 0 0 0 1.000000 0 0 0 0 0.984314 0 0 0 0 0.964706 0 0 0 1.000000 0"></feColorMatrix>
        </filter>
    </defs>
    <g id="UX-Design" stroke="none" stroke-width="1" fill="none" fill-rule="evenodd">
        <g id="Artboard" transform="translate(-450.000000, -315.000000)">
            <g id="Group" transform="translate(450.000000, 315.000000)">
                <circle id="teal-medium" fill="url(#linearGradient-1)" cx="25" cy="25" r="25"></circle>
                <g filter="url(#filter-2)" id="needle-1-copy">
                    <g transform="translate(26.500000, 26.000000) rotate(36.000000) translate(-26.500000, -26.000000) translate(15.000000, 7.000000)">
                        <path d="M22.3226307,28.2385321 C18.5722121,28.2385321 14.847292,28.2385321 11.1478704,28.2385321 L11.6336367,23.1834862 L12.2315253,23.1834862 C13.7866764,23.1834862 15.2491203,22.6393716 16.3495692,21.6513716 C17.4500182,20.6633716 18.0560612,19.3502798 18.0560612,17.9541284 C18.0560612,15.193289 15.6601383,12.926711 12.6373013,12.7388899 L13.2421793,6.44422477 C16.2386118,6.3335367 18.6385147,4.11140826 18.6385147,1.39449541 C18.6385147,0.913133028 18.2039073,0.52293578 17.6677588,0.52293578 C17.1316102,0.52293578 16.6970028,0.913133028 16.6970028,1.39449541 C16.6970028,3.0983945 15.2562068,4.50535321 13.4110909,4.68628899 L13.4404077,4.38159174 C13.5398131,3.34783486 13.1486955,2.31643119 12.3673341,1.55181193 C11.5859726,0.787192661 10.4750394,0.348623853 9.31925737,0.348623853 C8.16357238,0.348623853 7.05263924,0.787105505 6.27127776,1.55172477 C5.49001335,2.31634404 5.09879869,3.34774771 5.1982041,4.38159174 L5.22985075,4.71112844 C2.32767868,4.80900459 0,6.95809633 0,9.58715596 C0,10.8901376 0.565271205,12.1157248 1.59233103,13.0389679 C2.6199733,13.9603807 3.98505036,14.4678899 5.43623347,14.4678899 L6.16740687,14.4678899 L6.83742264,21.440367 L6.30991385,21.440367 C3.68702827,21.440367 1.55320956,23.3561422 1.55320956,25.7110092 C1.55320956,26.852055 2.04790681,27.9245963 2.94614731,28.7310505 C3.84438782,29.5375046 5.03900012,29.9816514 6.30991385,29.9816514 L7.65809975,29.9816514 L8.35209319,37.2033945 C8.39538891,37.6539908 8.81543502,38 9.31925737,38 C9.82307972,38 10.2431258,37.6539908 10.2864216,37.2033945 L10.980415,29.9816514 C14.7914735,29.9816514 18.5722121,29.9816514 22.3226307,29.9816514 C22.7503448,29.949934 23,29.5828504 23,29.090332 C23,28.5978137 22.7434313,28.2687746 22.3226307,28.2385321 Z M9.23659055,26.9712644 L8.85496183,23.1494253 L9.61832061,23.1494253 L9.23659055,26.9712644 L9.23659055,26.9712644 Z M16.0305344,17.9590713 C16.0305344,18.8781548 15.6300295,19.7426632 14.902906,20.3933471 C14.1757825,21.0439449 13.2095875,21.4022989 12.1823018,21.4022989 L11.7557252,21.4022989 L12.4190643,14.5229885 C14.4311127,14.6329135 16.0305344,16.1316644 16.0305344,17.9590713 Z M5.38171773,12.7758621 C4.4339594,12.7758621 3.54230537,12.446395 2.87181467,11.8488676 C2.20132396,11.2499325 1.83206107,10.454373 1.83206107,9.60875553 C1.83206107,7.87432482 3.40288274,6.4617953 5.3417841,6.44252874 L5.95419847,12.7758621 L5.38171773,12.7758621 L5.38171773,12.7758621 Z M7.24637976,6.4277726 L8.25781041,6.4277726 L8.25781041,7.64662939 C8.25781041,8.12746839 8.69607744,8.51724138 9.23674057,8.51724138 C9.7774037,8.51724138 10.2156707,8.12746839 10.2156707,7.64662939 L10.2156707,3.99005902 C10.2156707,3.50922002 9.7774037,3.11944703 9.23674057,3.11944703 C8.69607744,3.11944703 8.25781041,3.50922002 8.25781041,3.99005902 L8.25781041,4.68654862 L7.07741641,4.68654862 L7.03140669,4.21241333 C6.97746764,3.65644051 7.1813788,3.12371303 7.60564713,2.71243593 C8.02991546,2.30115882 8.60914844,2.07471264 9.23664268,2.07471264 C9.86423481,2.07471264 10.4434678,2.30124588 10.8676382,2.71243593 C11.2918087,3.12362597 11.4958177,3.65635345 11.4418787,4.21241333 L9.77436902,21.4022989 L8.69911213,21.4022989 L7.24637976,6.4277726 L7.24637976,6.4277726 Z M6.3080032,28.2816092 C5.56064857,28.2816092 4.85823165,28.0148241 4.33026176,27.5302752 C3.80219544,27.0457262 3.51145038,26.4012832 3.51145038,25.7155172 C3.51145038,24.3005387 4.7659454,23.1494253 6.3080032,23.1494253 L6.99836602,23.1494253 L7.48091603,28.2816092 L6.3080032,28.2816092 L6.3080032,28.2816092 Z" id="Shape" fill="#000000" fill-rule="nonzero"></path>
                    </g>
                </g>
            </g>
        </g>
    </g>
</svg>