<?xml version="1.0" encoding="UTF-8"?>
<svg width="128px" height="128px" viewBox="0 0 128 128" version="1.1" xmlns="http://www.w3.org/2000/svg" xmlns:xlink="http://www.w3.org/1999/xlink">
    <title>shoppingNavButton</title>
    <defs>
        <circle id="path-1" cx="57" cy="57" r="57"></circle>
        <filter x="-9.2%" y="-9.2%" width="118.4%" height="118.4%" filterUnits="objectBoundingBox" id="filter-2">
            <feOffset dx="0" dy="0" in="SourceAlpha" result="shadowOffsetOuter1"></feOffset>
            <feGaussianBlur stdDeviation="3.5" in="shadowOffsetOuter1" result="shadowBlurOuter1"></feGaussianBlur>
            <feColorMatrix values="0 0 0 0 0.898039216   0 0 0 0 0.631372549   0 0 0 0 0.439215686  0 0 0 0.96246722 0" type="matrix" in="shadowBlurOuter1"></feColorMatrix>
        </filter>
        <filter id="filter-3">
            <feColorMatrix in="SourceGraphic" type="matrix" values="0 0 0 0 1.000000 0 0 0 0 0.984314 0 0 0 0 0.964706 0 0 0 1.000000 0"></feColorMatrix>
        </filter>
    </defs>
    <g id="UX-Design" stroke="none" stroke-width="1" fill="none" fill-rule="evenodd">
        <g id="Artboard" transform="translate(-644.000000, -171.000000)">
            <g id="Group" transform="translate(651.000000, 178.000000)">
                <g id="teal-medium-copy-7">
                    <use fill="black" fill-opacity="1" filter="url(#filter-2)" xlink:href="#path-1"></use>
                    <use fill="#BF5A48" fill-rule="evenodd" xlink:href="#path-1"></use>
                </g>
                <text id="Shopping-list" font-family="LibreFranklin-Medium, Libre Franklin" font-size="15" font-weight="400" fill="#FFFBF6">
                    <tspan x="24.3475" y="79">Shopping</tspan>
                    <tspan x="47.395" y="97">list</tspan>
                </text>
                <g filter="url(#filter-3)" id="shopping-cart">
                    <g transform="translate(36.000000, 18.000000)">
                        <path d="M13.5,34 C11.014664,34 9,36.0147597 9,38.5 C9,40.985336 11.0147597,43 13.5,43 C15.985336,43 18,40.9852403 18,38.5 C18.0000957,36.0147597 15.985336,34 13.5,34 Z M13.5,41.0000744 C12.119279,41.0000744 11.0000213,39.8808167 11.0000213,38.5000957 C11.0000213,37.1193747 12.119279,36.000117 13.5,36.000117 C14.880721,36.000117 15.9999787,37.1193747 15.9999787,38.5000957 C16.0000744,39.8808167 14.880721,41.0000744 13.5,41.0000744 Z" id="Shape" fill="#000000" fill-rule="nonzero"></path>
                        <path d="M32.5,34 C30.014664,34 28,36.0147597 28,38.5 C28,40.985336 30.0147597,43 32.5,43 C34.9852403,43 37,40.9852403 37,38.5 C37,36.0147597 34.985336,34 32.5,34 Z M32.5,41.0000744 C31.119279,41.0000744 30.0000213,39.8808167 30.0000213,38.5000957 C30.0000213,37.1193747 31.119279,36.000117 32.5,36.000117 C33.880721,36.000117 34.9999787,37.1193747 34.9999787,38.5000957 C35.0000744,39.8808167 33.880721,41.0000744 32.5,41.0000744 Z" id="Shape" fill="#000000" fill-rule="nonzero"></path>
                        <path d="M42.7965587,7.59024017 C42.5888107,7.36648321 42.3045893,7.22641154 41.9985048,7.19675927 L10.2537684,6.37858631 L9,2.9672162 C8.36749527,1.15899264 6.27931598,0.0202388498 4.33950752,-3.07309733e-13 L0.997591228,-3.07309733e-13 C0.446619941,-3.07309733e-13 0,0.986673132 0,1.52992151 C0,2.0731699 0.446619941,2.9672162 0.997591228,2.9672162 L4.33950752,2.9672162 C5.42416959,2.99084388 6.37927559,3.67755276 6.73376466,4.68855391 L12.5697068,21.5 L12.5697068,23.0168492 C11.7315545,24.6065003 11.7315545,27.7605603 12.5697068,29.0327838 C13.3998394,30.282321 15.2452256,31.5643211 16.7595135,31.6092231 L36.1627536,31.6092231 C36.7137249,31.6092231 37,31.0310901 37,30.4878417 C37,29.9445933 36.7137249,29.0327838 36.1627536,29.0327838 L16.7595135,29.0327838 C15.9043671,29.0116977 15.1171971,28.5681375 14.6645624,27.8524353 C14.2169877,27.1454875 14.1250478,26.274558 14.4151885,25.4917382 L14.8142632,24.6065003 L35.8135155,22.4425436 C38.120129,22.1920526 40.0175477,20.5379267 40.5520977,18.3113708 L42.9463549,8.42615173 C43.0542387,8.14148996 42.9969553,7.82133959 42.7965587,7.59024017 Z M38.2146092,17.674972 C37.8907668,19.1082591 36.4845747,19.8567153 34.9999787,19.9727827 L15.1539297,22 L11.0000213,9.38758191 L39.739972,9.97535267 L38.2146092,17.674972 Z" id="Shape" fill="#000000" fill-rule="nonzero"></path>
                    </g>
                </g>
            </g>
        </g>
    </g>
</svg>