<?xml version="1.0" encoding="UTF-8"?>
<svg width="50px" height="50px" viewBox="0 0 50 50" version="1.1" xmlns="http://www.w3.org/2000/svg" xmlns:xlink="http://www.w3.org/1999/xlink">
    <title>shoppingCartNavBar</title>
    <defs>
        <linearGradient x1="50%" y1="-2.48949813e-15%" x2="50%" y2="100%" id="linearGradient-1">
            <stop stop-color="#84C0B7" offset="0%"></stop>
            <stop stop-color="#44A08D" offset="49.4618663%"></stop>
            <stop stop-color="#205F59" offset="100%"></stop>
        </linearGradient>
        <filter id="filter-2">
            <feColorMatrix in="SourceGraphic" type="matrix" values="0 0 0 0 1.000000 0 0 0 0 0.984314 0 0 0 0 0.964706 0 0 0 1.000000 0"></feColorMatrix>
        </filter>
    </defs>
    <g id="UX-Design" stroke="none" stroke-width="1" fill="none" fill-rule="evenodd">
        <g id="Artboard" transform="translate(-450.000000, -254.000000)">
            <g id="Group" transform="translate(450.000000, 254.000000)">
                <circle id="teal-medium" fill="url(#linearGradient-1)" cx="25" cy="25" r="25"></circle>
                <g filter="url(#filter-2)" id="shopping-cart-copy-2">
                    <g transform="translate(10.000000, 10.000000)">
                        <path d="M9,25 C7.34310932,25 6,26.3431731 6,28 C6,29.6568907 7.34317312,31 9,31 C10.6568907,31 12,29.6568269 12,28 C12.0000638,26.3431731 10.6568907,25 9,25 Z M9,29.3918457 C8.07951935,29.3918457 7.55957031,28.9204806 7.55957031,28 C7.55957031,27.0795194 8.07951935,26.6263428 9,26.6263428 C9.92048065,26.6263428 10.3365479,27.0795194 10.3365479,28 C10.3366117,28.9204806 9.92048065,29.3918457 9,29.3918457 Z" id="Shape" fill="#000000" fill-rule="nonzero"></path>
                        <path d="M22,25 C20.3431093,25 19,26.3431731 19,28 C19,29.6568907 20.3431731,31 22,31 C23.6568269,31 25,29.6568269 25,28 C25,26.3431731 23.6568907,25 22,25 Z M22,29.3918457 C21.0795194,29.3918457 20.5791016,28.9295749 20.5791016,28.0090942 C20.5791016,27.0886136 21.0795194,26.6263428 22,26.6263428 C22.9204806,26.6263428 23.4019775,27.0795194 23.4019775,28 C23.4020413,28.9204806 22.9204806,29.3918457 22,29.3918457 Z" id="Shape" fill="#000000" fill-rule="nonzero"></path>
                        <path d="M28.8627954,6.28280253 C28.7226863,6.12706782 28.5310021,6.02957803 28.324573,6.00894007 L7.57458496,5.38769531 L6.64245605,2.71728516 C6.2158831,1.45876266 4.23488752,0.597582321 2.92664461,0.583496094 L0.672794084,0.583496094 C0.301208797,0.583496094 0,1.35639653 0,1.73449707 C0,2.11259761 0.301208797,3.06518067 0.672794084,3.06518067 L2.92664461,3.06518067 C3.65816089,3.08162552 4.30230214,3.55957448 4.54137616,4.26323066 L8.47724409,15.9639869 L8.47724409,17.019713 C7.91197859,18.1261092 7.91197859,20.321333 8.47724409,21.2067998 C9.03710097,22.0764769 10.2816638,22.9687482 11.3029277,23 L24.3888338,23 C24.7604191,23 25.1774902,22.3140136 25.1774902,21.9359131 C25.1774902,21.5578125 24.7604191,20.8234863 24.3888338,20.8234863 L11.3029277,20.8234863 C10.7262011,20.8088104 10.5566382,20.6055908 10.3609619,20.1800537 C10.1652857,19.7545166 10.1652857,19.2895931 10.3609619,18.744751 L11.2584594,17.980957 L24.1533012,16.6199967 C25.7089242,16.4456551 26.9885787,15.2943844 27.3490892,13.7447029 L28.9638207,6.86459647 C29.0365796,6.66647205 28.9979466,6.44364759 28.8627954,6.28280253 Z M24.8991074,12.911559 C24.707551,13.7070456 23.8757728,14.1224452 22.9976178,14.1868637 L11.2584594,15.3119866 L8.80137644,8.31198659 L25.8013764,8.63820439 L24.8991074,12.911559 Z" id="Shape" fill="#000000" fill-rule="nonzero"></path>
                    </g>
                </g>
            </g>
        </g>
    </g>
</svg>