<?xml version="1.0" encoding="UTF-8"?>
<svg width="128px" height="128px" viewBox="0 0 128 128" version="1.1" xmlns="http://www.w3.org/2000/svg" xmlns:xlink="http://www.w3.org/1999/xlink">
    <title>startButton</title>
    <defs>
        <circle id="path-1" cx="57" cy="57" r="57"></circle>
        <filter x="-9.2%" y="-9.2%" width="118.4%" height="118.4%" filterUnits="objectBoundingBox" id="filter-2">
            <feOffset dx="0" dy="0" in="SourceAlpha" result="shadowOffsetOuter1"></feOffset>
            <feGaussianBlur stdDeviation="3.5" in="shadowOffsetOuter1" result="shadowBlurOuter1"></feGaussianBlur>
            <feColorMatrix values="0 0 0 0 0.898039216   0 0 0 0 0.631372549   0 0 0 0 0.439215686  0 0 0 0.96246722 0" type="matrix" in="shadowBlurOuter1"></feColorMatrix>
        </filter>
        <filter x="-29.8%" y="-29.8%" width="159.6%" height="159.6%" filterUnits="objectBoundingBox" id="filter-3">
            <feGaussianBlur stdDeviation="27" in="SourceAlpha" result="shadowBlurInner1"></feGaussianBlur>
            <feOffset dx="0" dy="0" in="shadowBlurInner1" result="shadowOffsetInner1"></feOffset>
            <feComposite in="shadowOffsetInner1" in2="SourceAlpha" operator="arithmetic" k2="-1" k3="1" result="shadowInnerInner1"></feComposite>
            <feColorMatrix values="0 0 0 0 0.607843137   0 0 0 0 0.266666667   0 0 0 0 0.247058824  0 0 0 1 0" type="matrix" in="shadowInnerInner1"></feColorMatrix>
        </filter>
    </defs>
    <g id="UX-Design" stroke="none" stroke-width="1" fill="none" fill-rule="evenodd">
        <g id="Artboard" transform="translate(-369.000000, -266.000000)">
            <g id="Group" transform="translate(376.000000, 273.000000)">
                <g id="teal-medium-copy-7">
                    <use fill="black" fill-opacity="1" filter="url(#filter-2)" xlink:href="#path-1"></use>
                    <use fill="#BF5A48" fill-rule="evenodd" xlink:href="#path-1"></use>
                    <use fill="black" fill-opacity="1" filter="url(#filter-3)" xlink:href="#path-1"></use>
                </g>
                <path d="M40.3195,65.231 C43.5745,65.231 45.6325,63.656 45.6325,61.094 C45.6325,58.994 44.2255,57.587 40.9705,56.579 L40.0675,56.306 C37.5685,55.529 36.2665,54.899 36.2665,53.345 C36.2665,51.875 37.5685,50.888 39.7735,50.888 C41.9785,50.888 43.2595,52.043 43.8685,53.177 C43.9315,53.303 44.0155,53.366 44.1625,53.366 L45.0655,53.366 C45.2335,53.366 45.3175,53.261 45.2545,53.072 C44.6455,51.434 42.9655,49.586 39.8995,49.586 C37.0015,49.586 34.7755,51.077 34.8175,53.534 C34.8595,55.676 36.4975,56.726 39.2905,57.608 L40.2145,57.902 C42.9025,58.763 44.1625,59.708 44.1625,61.283 C44.1625,62.963 42.7345,63.929 40.3825,63.929 C37.5475,63.929 36.2455,62.522 35.6785,61.115 C35.6155,60.989 35.5315,60.926 35.3845,60.926 L34.4395,60.926 C34.2505,60.926 34.1665,61.031 34.2085,61.199 C34.6705,62.984 36.4555,65.231 40.3195,65.231 Z M50.5465,65 C50.7145,65 50.7985,64.916 50.7985,64.748 L50.7565,55.151 L53.0035,55.151 C53.1715,55.151 53.2555,55.067 53.2555,54.899 L53.2555,54.206 C53.2555,54.038 53.1715,53.954 53.0035,53.954 L50.7565,53.954 L50.7355,49.796 C50.7355,49.628 50.6515,49.544 50.4835,49.544 L49.6225,49.544 C49.4545,49.544 49.3705,49.628 49.3705,49.796 L49.3495,53.954 L47.5435,53.954 C47.3755,53.954 47.2915,54.038 47.2915,54.206 L47.2915,54.899 C47.2915,55.067 47.3755,55.151 47.5435,55.151 L49.3495,55.151 L49.3075,64.748 C49.3075,64.916 49.3915,65 49.5595,65 L50.5465,65 Z M58.1695,65.168 C59.9335,65.168 61.3195,64.349 62.0755,63.194 L62.2015,63.194 L62.2015,64.748 C62.2015,64.916 62.2855,65 62.4535,65 L63.3775,65 C63.5455,65 63.6295,64.916 63.6295,64.748 L63.5875,57.398 C63.5875,55.13 62.1175,53.723 59.5135,53.723 C57.1825,53.723 55.6915,54.92 55.2715,56.747 C55.2505,56.894 55.3345,56.978 55.5025,56.978 L56.3425,56.978 C56.5105,56.978 56.5945,56.915 56.6365,56.768 C56.9725,55.655 57.9385,54.962 59.4295,54.962 C61.2775,54.962 62.2015,55.928 62.2015,57.209 C62.2015,58.133 61.6975,58.427 60.5425,58.511 C56.4265,58.868 54.7675,59.918 54.7675,62.123 C54.7675,64.16 56.1955,65.168 58.1695,65.168 Z M58.4635,63.929 C57.0775,63.929 56.1745,63.278 56.1745,62.039 C56.1745,60.611 57.4765,59.918 60.4165,59.645 C61.2565,59.561 61.7395,59.435 62.0965,59.225 L62.2015,59.267 L62.2015,61.325 C61.9495,62.543 60.5215,63.929 58.4635,63.929 Z M68.1655,65 C68.3335,65 68.4175,64.916 68.4175,64.748 L68.3965,58.406 C68.8165,56.033 70.2025,55.298 71.9875,55.235 C72.1555,55.235 72.2395,55.151 72.2395,54.983 L72.2395,53.975 C72.2395,53.807 72.1555,53.723 71.9875,53.723 C70.4755,53.828 69.2785,54.689 68.5225,55.886 L68.3965,55.865 L68.3755,54.206 C68.3755,54.038 68.2915,53.954 68.1235,53.954 L67.2415,53.954 C67.0735,53.954 66.9895,54.038 66.9895,54.206 L66.9475,64.748 C66.9475,64.916 67.0315,65 67.1995,65 L68.1655,65 Z M76.6495,65 C76.8175,65 76.9015,64.916 76.9015,64.748 L76.8595,55.151 L79.1065,55.151 C79.2745,55.151 79.3585,55.067 79.3585,54.899 L79.3585,54.206 C79.3585,54.038 79.2745,53.954 79.1065,53.954 L76.8595,53.954 L76.8385,49.796 C76.8385,49.628 76.7545,49.544 76.5865,49.544 L75.7255,49.544 C75.5575,49.544 75.4735,49.628 75.4735,49.796 L75.4525,53.954 L73.6465,53.954 C73.4785,53.954 73.3945,54.038 73.3945,54.206 L73.3945,54.899 C73.3945,55.067 73.4785,55.151 73.6465,55.151 L75.4525,55.151 L75.4105,64.748 C75.4105,64.916 75.4945,65 75.6625,65 L76.6495,65 Z" id="Start" fill="#FFFBF6" fill-rule="nonzero"></path>
            </g>
        </g>
    </g>
</svg>