<?xml version="1.0" encoding="UTF-8"?>
<svg width="128px" height="128px" viewBox="0 0 128 128" version="1.1" xmlns="http://www.w3.org/2000/svg" xmlns:xlink="http://www.w3.org/1999/xlink">
    <title>startButtonArchive</title>
    <defs>
        <circle id="path-1" cx="57" cy="57" r="57"></circle>
        <filter x="-9.2%" y="-9.2%" width="118.4%" height="118.4%" filterUnits="objectBoundingBox" id="filter-2">
            <feOffset dx="0" dy="0" in="SourceAlpha" result="shadowOffsetOuter1"></feOffset>
            <feGaussianBlur stdDeviation="3.5" in="shadowOffsetOuter1" result="shadowBlurOuter1"></feGaussianBlur>
            <feColorMatrix values="0 0 0 0 0.898039216   0 0 0 0 0.631372549   0 0 0 0 0.439215686  0 0 0 0.96246722 0" type="matrix" in="shadowBlurOuter1"></feColorMatrix>
        </filter>
        <filter id="filter-3">
            <feColorMatrix in="SourceGraphic" type="matrix" values="0 0 0 0 1.000000 0 0 0 0 0.984314 0 0 0 0 0.964706 0 0 0 1.000000 0"></feColorMatrix>
        </filter>
    </defs>
    <g id="UX-Design" stroke="none" stroke-width="1" fill="none" fill-rule="evenodd">
        <g id="Artboard" transform="translate(-954.000000, -44.000000)">
            <g id="Group" transform="translate(961.000000, 51.000000)">
                <g id="teal-medium-copy-10">
                    <use fill="black" fill-opacity="1" filter="url(#filter-2)" xlink:href="#path-1"></use>
                    <use fill="#C64E3C" fill-rule="evenodd" xlink:href="#path-1"></use>
                </g>
                <path d="M32.375,89 C32.515,89 32.6,88.95 32.63,88.85 L32.63,88.85 L33.605,86.135 C33.635,86.055 33.695,86.015 33.785,86.015 L33.785,86.015 L37.94,86.015 C38,86.015 38.04,86.025 38.06,86.045 C38.08,86.065 38.1,86.1 38.12,86.15 L38.12,86.15 L39.08,88.82 C39.12,88.94 39.205,89 39.335,89 L39.335,89 L40.76,89 C40.87,89 40.925,88.935 40.925,88.805 C40.925,88.755 40.92,88.72 40.91,88.7 L40.91,88.7 L37.115,78.125 C37.055,77.955 36.93,77.87 36.74,77.87 L36.74,77.87 L35.225,77.87 C35.135,77.87 35.065,77.8875 35.015,77.9225 C34.965,77.9575 34.925,78.02 34.895,78.11 L34.895,78.11 L31.07,88.685 L31.04,88.82 C31.04,88.94 31.1,89 31.22,89 L31.22,89 L32.375,89 Z M37.475,84.605 L34.22,84.605 C34.13,84.605 34.085,84.57 34.085,84.5 L34.085,84.5 L34.1,84.41 L35.765,79.91 C35.795,79.83 35.83,79.79 35.87,79.79 C35.91,79.79 35.945,79.825 35.975,79.895 L35.975,79.895 L37.595,84.395 C37.615,84.465 37.6175,84.5175 37.6025,84.5525 C37.5875,84.5875 37.545,84.605 37.475,84.605 L37.475,84.605 Z M43.895,89 C44.085,89 44.18,88.915 44.18,88.745 L44.18,88.745 L44.18,83.96 C44.18,83.7 44.285,83.445 44.495,83.195 C44.705,82.945 44.965,82.7425 45.275,82.5875 C45.585,82.4325 45.88,82.355 46.16,82.355 C46.5,82.355 46.765,82.38 46.955,82.43 C47.065,82.45 47.12,82.4 47.12,82.28 L47.12,82.28 L47.12,81.11 C47.12,80.97 46.945,80.9 46.595,80.9 C46.215,80.9 45.8275,81.015 45.4325,81.245 C45.0375,81.475 44.655,81.805 44.285,82.235 C44.245,82.285 44.2075,82.305 44.1725,82.295 C44.1375,82.285 44.12,82.25 44.12,82.19 L44.12,82.19 L44.12,81.245 C44.12,81.115 44.06,81.05 43.94,81.05 L43.94,81.05 L42.785,81.05 C42.655,81.05 42.59,81.125 42.59,81.275 L42.59,81.275 L42.59,88.76 C42.59,88.92 42.67,89 42.83,89 L42.83,89 L43.895,89 Z M51.725,89.15 C52.535,89.15 53.2125,88.9525 53.7575,88.5575 C54.3025,88.1625 54.715,87.67 54.995,87.08 C55.045,86.96 55.025,86.885 54.935,86.855 L54.935,86.855 L54.14,86.615 C54.09,86.595 54.05,86.59 54.02,86.6 C53.99,86.61 53.96,86.635 53.93,86.675 C53.65,87.135 53.3475,87.48 53.0225,87.71 C52.6975,87.94 52.31,88.055 51.86,88.055 C51.14,88.055 50.57,87.79 50.15,87.26 C49.73,86.73 49.52,85.985 49.52,85.025 C49.52,84.075 49.725,83.335 50.135,82.805 C50.545,82.275 51.1,82.01 51.8,82.01 C52.17,82.01 52.485,82.1075 52.745,82.3025 C53.005,82.4975 53.275,82.8 53.555,83.21 C53.595,83.29 53.645,83.33 53.705,83.33 L53.705,83.33 L53.75,83.33 L54.815,83.15 C54.905,83.13 54.95,83.09 54.95,83.03 C54.95,82.98 54.94,82.935 54.92,82.895 C54.65,82.305 54.245,81.825 53.705,81.455 C53.165,81.085 52.505,80.9 51.725,80.9 C50.995,80.9 50.34,81.0775 49.76,81.4325 C49.18,81.7875 48.725,82.28 48.395,82.91 C48.065,83.54 47.9,84.255 47.9,85.055 C47.9,85.855 48.0625,86.565 48.3875,87.185 C48.7125,87.805 49.165,88.2875 49.745,88.6325 C50.325,88.9775 50.985,89.15 51.725,89.15 Z M57.815,89 C58.005,89 58.1,88.915 58.1,88.745 L58.1,88.745 L58.1,83.225 C58.55,82.815 58.9325,82.525 59.2475,82.355 C59.5625,82.185 59.915,82.1 60.305,82.1 C60.775,82.1 61.125,82.2225 61.355,82.4675 C61.585,82.7125 61.7,83.06 61.7,83.51 L61.7,83.51 L61.7,88.76 C61.7,88.92 61.775,89 61.925,89 L61.925,89 L63.035,89 C63.205,89 63.29,88.91 63.29,88.73 L63.29,88.73 L63.29,83.21 C63.29,82.49 63.085,81.925 62.675,81.515 C62.265,81.105 61.675,80.9 60.905,80.9 C60.435,80.9 60,80.99 59.6,81.17 C59.2,81.35 58.735,81.65 58.205,82.07 C58.105,82.16 58.055,82.145 58.055,82.025 L58.055,82.025 L58.055,78.065 C58.055,77.935 57.995,77.87 57.875,77.87 L57.875,77.87 L56.69,77.87 C56.57,77.87 56.51,77.945 56.51,78.095 L56.51,78.095 L56.51,88.76 C56.51,88.84 56.5275,88.9 56.5625,88.94 C56.5975,88.98 56.66,89 56.75,89 L56.75,89 L57.815,89 Z M66.65,79.775 C66.76,79.775 66.8375,79.75 66.8825,79.7 C66.9275,79.65 66.95,79.57 66.95,79.46 L66.95,79.46 L66.95,78.11 C66.95,78.04 66.93,77.9825 66.89,77.9375 C66.85,77.8925 66.8,77.87 66.74,77.87 L66.74,77.87 L65.495,77.87 C65.345,77.87 65.27,77.955 65.27,78.125 L65.27,78.125 L65.27,79.49 C65.27,79.59 65.29,79.6625 65.33,79.7075 C65.37,79.7525 65.44,79.775 65.54,79.775 L65.54,79.775 L66.65,79.775 Z M66.605,89 C66.715,89 66.7925,88.98 66.8375,88.94 C66.8825,88.9 66.905,88.825 66.905,88.715 L66.905,88.715 L66.905,81.26 C66.905,81.12 66.845,81.05 66.725,81.05 L66.725,81.05 L65.525,81.05 C65.445,81.05 65.39,81.0675 65.36,81.1025 C65.33,81.1375 65.315,81.195 65.315,81.275 L65.315,81.275 L65.315,88.76 C65.315,88.85 65.335,88.9125 65.375,88.9475 C65.415,88.9825 65.485,89 65.585,89 L65.585,89 L66.605,89 Z M72.485,89 C72.685,89 72.815,88.915 72.875,88.745 L72.875,88.745 L75.905,81.305 C75.925,81.245 75.92,81.1875 75.89,81.1325 C75.86,81.0775 75.81,81.05 75.74,81.05 L75.74,81.05 L74.855,81.05 C74.745,81.05 74.655,81.11 74.585,81.23 L74.585,81.23 L72.455,86.66 C72.405,86.77 72.36,86.825 72.32,86.825 C72.28,86.825 72.245,86.775 72.215,86.675 L72.215,86.675 L70.055,81.245 C70.025,81.115 69.94,81.05 69.8,81.05 L69.8,81.05 L68.555,81.05 C68.495,81.05 68.445,81.0675 68.405,81.1025 C68.365,81.1375 68.345,81.185 68.345,81.245 C68.345,81.275 68.35,81.3 68.36,81.32 L68.36,81.32 L71.375,88.76 C71.445,88.92 71.58,89 71.78,89 L71.78,89 L72.485,89 Z M80.36,89.15 C81.13,89.15 81.785,89.0125 82.325,88.7375 C82.865,88.4625 83.345,88.015 83.765,87.395 C83.795,87.345 83.81,87.305 83.81,87.275 C83.81,87.225 83.785,87.185 83.735,87.155 L83.735,87.155 L82.9366667,86.7783333 C82.9122222,86.7694444 82.8833333,86.765 82.85,86.765 C82.81,86.765 82.775,86.785 82.745,86.825 C82.445,87.225 82.115,87.52 81.755,87.71 C81.395,87.9 80.985,87.995 80.525,87.995 C80.085,87.995 79.68,87.8875 79.31,87.6725 C78.94,87.4575 78.6475,87.1675 78.4325,86.8025 C78.2175,86.4375 78.11,86.03 78.11,85.58 C78.11,85.42 78.16,85.34 78.26,85.34 L78.26,85.34 L83.81,85.34 C83.91,85.34 83.9725,85.3175 83.9975,85.2725 C84.0225,85.2275 84.035,85.16 84.035,85.07 L84.035,85.07 L84.035,85.01 C84.035,84.16 83.8825,83.425 83.5775,82.805 C83.2725,82.185 82.84,81.7125 82.28,81.3875 C81.72,81.0625 81.07,80.9 80.33,80.9 C79.61,80.9 78.9575,81.0725 78.3725,81.4175 C77.7875,81.7625 77.325,82.255 76.985,82.895 C76.645,83.535 76.475,84.275 76.475,85.115 C76.475,85.895 76.64,86.5925 76.97,87.2075 C77.3,87.8225 77.76,88.3 78.35,88.64 C78.94,88.98 79.61,89.15 80.36,89.15 Z M82.205,84.395 L78.14,84.38 C78.13,83.95 78.2175,83.5525 78.4025,83.1875 C78.5875,82.8225 78.85,82.5275 79.19,82.3025 C79.53,82.0775 79.925,81.965 80.375,81.965 C80.805,81.965 81.1775,82.0675 81.4925,82.2725 C81.8075,82.4775 82.0475,82.75 82.2125,83.09 C82.3775,83.43 82.46,83.795 82.46,84.185 C82.46,84.265 82.4425,84.32 82.4075,84.35 C82.3725,84.38 82.305,84.395 82.205,84.395 L82.205,84.395 Z" id="Archive" fill="#FFFBF6" fill-rule="nonzero"></path>
                <g filter="url(#filter-3)" id="folder">
                    <g transform="translate(36.000000, 26.000000)">
                        <path d="M39.4166667,39 L3.58333333,39 C1.60431298,39 0,37.4126459 0,35.4545455 L0,35.4545455 L0,33.6818182 L0,33.6818182 L0,3.54545455 C0,1.58735407 1.60431298,0 3.58333333,0 L17.9166667,0 C19.895687,0 21.5,1.58735407 21.5,3.54545455 L39.4166667,3.54545455 C41.395687,3.54545455 43,5.13280861 43,7.09090909 L43,35.4545455 C43,37.4126459 41.395687,39 39.4166667,39 Z M39.4166667,7.09090909 L17.9166667,7.09090909 L17.9166667,3.54545455 L3.58333333,3.54545455 L3.58333333,10.6363636 L39.4166667,10.6363636 L39.4166667,7.09090909 Z M39.4166667,14.1818182 L3.58333333,14.1818182 L3.58333333,33.6818182 L3.58333333,33.6818182 L3.58333333,35.4545455 L39.4166667,35.4545455 L39.4166667,33.6818182 L39.4166667,33.6818182 L39.4166667,14.1818182 Z" fill="#000000" fill-rule="nonzero"></path>
                    </g>
                </g>
            </g>
        </g>
    </g>
</svg>