<?xml version="1.0" encoding="UTF-8"?>
<svg width="128px" height="128px" viewBox="0 0 128 128" version="1.1" xmlns="http://www.w3.org/2000/svg" xmlns:xlink="http://www.w3.org/1999/xlink">
    <title>startButtonProjects</title>
    <defs>
        <circle id="path-1" cx="57" cy="57" r="57"></circle>
        <filter x="-9.2%" y="-9.2%" width="118.4%" height="118.4%" filterUnits="objectBoundingBox" id="filter-2">
            <feOffset dx="0" dy="0" in="SourceAlpha" result="shadowOffsetOuter1"></feOffset>
            <feGaussianBlur stdDeviation="3.5" in="shadowOffsetOuter1" result="shadowBlurOuter1"></feGaussianBlur>
            <feColorMatrix values="0 0 0 0 0.898039216   0 0 0 0 0.631372549   0 0 0 0 0.439215686  0 0 0 0.96246722 0" type="matrix" in="shadowBlurOuter1"></feColorMatrix>
        </filter>
        <filter id="filter-3">
            <feColorMatrix in="SourceGraphic" type="matrix" values="0 0 0 0 1.000000 0 0 0 0 0.984314 0 0 0 0 0.964706 0 0 0 1.000000 0"></feColorMatrix>
        </filter>
    </defs>
    <g id="UX-Design" stroke="none" stroke-width="1" fill="none" fill-rule="evenodd">
        <g id="Artboard" transform="translate(-1084.000000, -44.000000)">
            <g id="Group" transform="translate(1091.000000, 51.000000)">
                <g id="teal-medium-copy-9">
                    <use fill="black" fill-opacity="1" filter="url(#filter-2)" xlink:href="#path-1"></use>
                    <use fill="#C64E3C" fill-rule="evenodd" xlink:href="#path-1"></use>
                </g>
                <path d="M30.075,89 C30.255,89 30.345,88.915 30.345,88.745 L30.345,88.745 L30.345,84.62 C30.345,84.52 30.395,84.47 30.495,84.47 L30.495,84.47 L32.955,84.47 C34.165,84.47 35.1325,84.19 35.8575,83.63 C36.5825,83.07 36.945,82.255 36.945,81.185 C36.945,80.085 36.56,79.2575 35.79,78.7025 C35.02,78.1475 34.005,77.87 32.745,77.87 L32.745,77.87 L28.74,77.87 C28.66,77.87 28.605,77.8875 28.575,77.9225 C28.545,77.9575 28.53,78.015 28.53,78.095 L28.53,78.095 L28.53,88.775 C28.53,88.925 28.61,89 28.77,89 L28.77,89 L30.075,89 Z M32.745,83.135 L30.51,83.135 C30.4,83.135 30.345,83.06 30.345,82.91 L30.345,82.91 L30.345,79.415 C30.345,79.335 30.3625,79.28 30.3975,79.25 C30.4325,79.22 30.49,79.205 30.57,79.205 L30.57,79.205 L32.64,79.205 C34.27,79.205 35.085,79.85 35.085,81.14 C35.085,81.8 34.8775,82.2975 34.4625,82.6325 C34.0475,82.9675 33.475,83.135 32.745,83.135 L32.745,83.135 Z M40.035,89 C40.225,89 40.32,88.915 40.32,88.745 L40.32,88.745 L40.32,83.96 C40.32,83.7 40.425,83.445 40.635,83.195 C40.845,82.945 41.105,82.7425 41.415,82.5875 C41.725,82.4325 42.02,82.355 42.3,82.355 C42.64,82.355 42.905,82.38 43.095,82.43 C43.205,82.45 43.26,82.4 43.26,82.28 L43.26,82.28 L43.26,81.11 C43.26,80.97 43.085,80.9 42.735,80.9 C42.355,80.9 41.9675,81.015 41.5725,81.245 C41.1775,81.475 40.795,81.805 40.425,82.235 C40.385,82.285 40.3475,82.305 40.3125,82.295 C40.2775,82.285 40.26,82.25 40.26,82.19 L40.26,82.19 L40.26,81.245 C40.26,81.115 40.2,81.05 40.08,81.05 L40.08,81.05 L38.925,81.05 C38.795,81.05 38.73,81.125 38.73,81.275 L38.73,81.275 L38.73,88.76 C38.73,88.92 38.81,89 38.97,89 L38.97,89 L40.035,89 Z M47.895,89.15 C48.655,89.15 49.3275,88.975 49.9125,88.625 C50.4975,88.275 50.9525,87.79 51.2775,87.17 C51.6025,86.55 51.765,85.845 51.765,85.055 C51.765,84.255 51.605,83.54 51.285,82.91 C50.965,82.28 50.5125,81.7875 49.9275,81.4325 C49.3425,81.0775 48.67,80.9 47.91,80.9 C47.16,80.9 46.4925,81.075 45.9075,81.425 C45.3225,81.775 44.865,82.2675 44.535,82.9025 C44.205,83.5375 44.04,84.26 44.04,85.07 C44.04,85.86 44.2,86.565 44.52,87.185 C44.84,87.805 45.2925,88.2875 45.8775,88.6325 C46.4625,88.9775 47.135,89.15 47.895,89.15 Z M47.925,88.025 C47.215,88.025 46.66,87.76 46.26,87.23 C45.86,86.7 45.66,85.965 45.66,85.025 C45.66,84.075 45.86,83.3325 46.26,82.7975 C46.66,82.2625 47.21,81.995 47.91,81.995 C48.61,81.995 49.1575,82.2625 49.5525,82.7975 C49.9475,83.3325 50.145,84.075 50.145,85.025 C50.145,85.975 49.95,86.7125 49.56,87.2375 C49.17,87.7625 48.625,88.025 47.925,88.025 Z M54.78,79.775 C54.9,79.775 54.9825,79.75 55.0275,79.7 C55.0725,79.65 55.095,79.57 55.095,79.46 L55.095,79.46 L55.095,78.11 C55.095,78.04 55.075,77.9825 55.035,77.9375 C54.995,77.8925 54.94,77.87 54.87,77.87 L54.87,77.87 L53.64,77.87 C53.49,77.87 53.415,77.955 53.415,78.125 L53.415,78.125 L53.415,79.49 C53.415,79.68 53.5,79.775 53.67,79.775 L53.67,79.775 L54.78,79.775 Z M52.755,91.55 C53.575,91.55 54.1625,91.3675 54.5175,91.0025 C54.8725,90.6375 55.05,90.06 55.05,89.27 L55.05,89.27 L55.05,81.26 C55.05,81.12 54.99,81.05 54.87,81.05 L54.87,81.05 L53.67,81.05 C53.53,81.05 53.46,81.125 53.46,81.275 L53.46,81.275 L53.46,89.18 C53.46,89.56 53.3975,89.825 53.2725,89.975 C53.1475,90.125 52.94,90.21 52.65,90.23 L52.65,90.23 L51.93,90.275 C51.81,90.305 51.75,90.38 51.75,90.5 L51.75,90.5 L51.765,91.31 C51.765,91.38 51.7875,91.4325 51.8325,91.4675 C51.8775,91.5025 51.98,91.525 52.14,91.535 C52.3,91.545 52.505,91.55 52.755,91.55 Z M60.615,89.15 C61.385,89.15 62.04,89.0125 62.58,88.7375 C63.12,88.4625 63.6,88.015 64.02,87.395 C64.05,87.345 64.065,87.305 64.065,87.275 C64.065,87.225 64.04,87.185 63.99,87.155 L63.99,87.155 L63.1916667,86.7783333 C63.1672222,86.7694444 63.1383333,86.765 63.105,86.765 C63.065,86.765 63.03,86.785 63,86.825 C62.7,87.225 62.37,87.52 62.01,87.71 C61.65,87.9 61.24,87.995 60.78,87.995 C60.34,87.995 59.935,87.8875 59.565,87.6725 C59.195,87.4575 58.9025,87.1675 58.6875,86.8025 C58.4725,86.4375 58.365,86.03 58.365,85.58 C58.365,85.42 58.415,85.34 58.515,85.34 L58.515,85.34 L64.065,85.34 C64.165,85.34 64.2275,85.3175 64.2525,85.2725 C64.2775,85.2275 64.29,85.16 64.29,85.07 L64.29,85.07 L64.29,85.01 C64.29,84.16 64.1375,83.425 63.8325,82.805 C63.5275,82.185 63.095,81.7125 62.535,81.3875 C61.975,81.0625 61.325,80.9 60.585,80.9 C59.865,80.9 59.2125,81.0725 58.6275,81.4175 C58.0425,81.7625 57.58,82.255 57.24,82.895 C56.9,83.535 56.73,84.275 56.73,85.115 C56.73,85.895 56.895,86.5925 57.225,87.2075 C57.555,87.8225 58.015,88.3 58.605,88.64 C59.195,88.98 59.865,89.15 60.615,89.15 Z M62.46,84.395 L58.395,84.38 C58.385,83.95 58.4725,83.5525 58.6575,83.1875 C58.8425,82.8225 59.105,82.5275 59.445,82.3025 C59.785,82.0775 60.18,81.965 60.63,81.965 C61.06,81.965 61.4325,82.0675 61.7475,82.2725 C62.0625,82.4775 62.3025,82.75 62.4675,83.09 C62.6325,83.43 62.715,83.795 62.715,84.185 C62.715,84.265 62.6975,84.32 62.6625,84.35 C62.6275,84.38 62.56,84.395 62.46,84.395 L62.46,84.395 Z M69.285,89.15 C70.095,89.15 70.7725,88.9525 71.3175,88.5575 C71.8625,88.1625 72.275,87.67 72.555,87.08 C72.605,86.96 72.585,86.885 72.495,86.855 L72.495,86.855 L71.7,86.615 C71.65,86.595 71.61,86.59 71.58,86.6 C71.55,86.61 71.52,86.635 71.49,86.675 C71.21,87.135 70.9075,87.48 70.5825,87.71 C70.2575,87.94 69.87,88.055 69.42,88.055 C68.7,88.055 68.13,87.79 67.71,87.26 C67.29,86.73 67.08,85.985 67.08,85.025 C67.08,84.075 67.285,83.335 67.695,82.805 C68.105,82.275 68.66,82.01 69.36,82.01 C69.73,82.01 70.045,82.1075 70.305,82.3025 C70.565,82.4975 70.835,82.8 71.115,83.21 C71.155,83.29 71.205,83.33 71.265,83.33 L71.265,83.33 L71.31,83.33 L72.375,83.15 C72.465,83.13 72.51,83.09 72.51,83.03 C72.51,82.98 72.5,82.935 72.48,82.895 C72.21,82.305 71.805,81.825 71.265,81.455 C70.725,81.085 70.065,80.9 69.285,80.9 C68.555,80.9 67.9,81.0775 67.32,81.4325 C66.74,81.7875 66.285,82.28 65.955,82.91 C65.625,83.54 65.46,84.255 65.46,85.055 C65.46,85.855 65.6225,86.565 65.9475,87.185 C66.2725,87.805 66.725,88.2875 67.305,88.6325 C67.885,88.9775 68.545,89.15 69.285,89.15 Z M76.77,89 C77.47,89 77.98,88.975 78.3,88.925 C78.45,88.895 78.525,88.81 78.525,88.67 L78.525,88.67 L78.525,88.025 C78.525,87.905 78.465,87.845 78.345,87.845 L78.345,87.845 L77.385,87.845 C77.045,87.845 76.7975,87.765 76.6425,87.605 C76.4875,87.445 76.41,87.155 76.41,86.735 L76.41,86.735 L76.41,82.34 C76.41,82.24 76.455,82.19 76.545,82.19 L76.545,82.19 L78.345,82.19 C78.485,82.19 78.555,82.13 78.555,82.01 L78.555,82.01 L78.555,81.215 C78.555,81.105 78.495,81.05 78.375,81.05 L78.375,81.05 L76.575,81.05 C76.485,81.05 76.44,81.005 76.44,80.915 L76.44,80.915 L76.44,78.59 C76.44,78.43 76.375,78.35 76.245,78.35 L76.245,78.35 L75.21,78.35 C75.11,78.35 75.05,78.42 75.03,78.56 L75.03,78.56 L74.85,80.915 C74.85,81.005 74.81,81.05 74.73,81.05 L74.73,81.05 L73.53,81.05 C73.41,81.05 73.35,81.105 73.35,81.215 L73.35,81.215 L73.35,82.01 C73.35,82.13 73.415,82.19 73.545,82.19 L73.545,82.19 L74.67,82.19 C74.77,82.19 74.82,82.25 74.82,82.37 L74.82,82.37 L74.82,87.125 C74.82,87.765 74.98,88.2375 75.3,88.5425 C75.62,88.8475 76.11,89 76.77,89 Z M82.83,89.15 C83.47,89.15 84.045,89.05 84.555,88.85 C85.065,88.65 85.4625,88.3675 85.7475,88.0025 C86.0325,87.6375 86.175,87.215 86.175,86.735 C86.175,86.225 86.0075,85.7825 85.6725,85.4075 C85.3375,85.0325 84.82,84.755 84.12,84.575 L84.12,84.575 L82.275,84.05 C81.855,83.93 81.565,83.79 81.405,83.63 C81.245,83.47 81.165,83.29 81.165,83.09 C81.165,82.74 81.325,82.4625 81.645,82.2575 C81.965,82.0525 82.375,81.95 82.875,81.95 C83.325,81.95 83.72,82.0375 84.06,82.2125 C84.4,82.3875 84.675,82.62 84.885,82.91 C84.935,82.96 84.99,82.985 85.05,82.985 C85.09,82.985 85.12,82.98 85.14,82.97 L85.14,82.97 L85.92,82.565 C85.97,82.535 85.995,82.5 85.995,82.46 C85.995,82.42 85.975,82.37 85.935,82.31 C85.665,81.89 85.26,81.55 84.72,81.29 C84.18,81.03 83.57,80.9 82.89,80.9 C82.26,80.9 81.7075,81.0025 81.2325,81.2075 C80.7575,81.4125 80.3875,81.6975 80.1225,82.0625 C79.8575,82.4275 79.725,82.85 79.725,83.33 C79.725,83.86 79.895,84.3 80.235,84.65 C80.575,85 81.115,85.265 81.855,85.445 L81.855,85.445 L83.385,85.835 C83.855,85.955 84.1925,86.1025 84.3975,86.2775 C84.6025,86.4525 84.705,86.665 84.705,86.915 C84.705,87.265 84.525,87.5425 84.165,87.7475 C83.805,87.9525 83.35,88.055 82.8,88.055 C81.76,88.055 80.975,87.655 80.445,86.855 C80.415,86.815 80.375,86.795 80.325,86.795 C80.285,86.795 80.235,86.81 80.175,86.84 L80.175,86.84 L79.44,87.23 C79.39,87.26 79.365,87.305 79.365,87.365 C79.365,87.405 79.38,87.45 79.41,87.5 C79.67,87.99 80.105,88.3875 80.715,88.6925 C81.325,88.9975 82.03,89.15 82.83,89.15 Z" id="Projects" fill="#FFFBF6" fill-rule="nonzero"></path>
                <g filter="url(#filter-3)" id="needle-1">
                    <g transform="translate(32.000000, 22.000000)">
                        <path d="M46.1365126,3.68012156 L46.1365126,1.07798165 C46.1365126,0.482612385 45.5931319,0 44.9230676,0 L32.9802208,0 C32.3101565,0 31.7667759,0.482612385 31.7667759,1.07798165 L31.7667759,3.68012156 C29.5924038,3.91921789 27.9032884,5.5696078 27.9032884,7.56484404 L27.9032884,34.9266055 L13.934838,34.9266055 L14.5420459,28.6743119 L15.2894066,28.6743119 C17.2333455,28.6743119 19.0614003,28.001328 20.4369615,26.779328 C21.8125228,25.557328 22.5700764,23.9332408 22.5700764,22.206422 C22.5700764,18.7916995 19.5751729,15.9883005 15.7966266,15.7559954 L16.5527242,7.97048853 C20.2982648,7.83358486 23.2981434,5.08516284 23.2981434,1.72477064 C23.2981434,1.12940138 22.7548841,0.646788991 22.0846985,0.646788991 C21.4145128,0.646788991 20.8712535,1.12940138 20.8712535,1.72477064 C20.8712535,3.83222477 19.0702585,5.57241055 16.7638636,5.79619954 L16.8005096,5.41933716 C16.9247664,4.14074312 16.4358694,2.86505963 15.4591676,1.91934633 C14.4824657,0.973633028 13.0937993,0.431192661 11.6490717,0.431192661 C10.2044655,0.431192661 8.81579905,0.973525229 7.8390972,1.91923853 C6.86251668,2.86495183 6.37349836,4.14063532 6.49775513,5.41933716 L6.53731343,5.82692202 C2.90959835,5.94797936 0,8.60606651 0,11.8577982 C0,13.4693807 0.706589006,14.9852385 1.99041378,16.1271445 C3.27496663,17.2667867 4.98131295,17.8944954 6.79529183,17.8944954 L7.70925859,17.8944954 L8.5467783,26.5183486 L7.88739231,26.5183486 C4.60878534,26.5183486 1.94151195,28.8878601 1.94151195,31.8004587 C1.94151195,33.2117523 2.55988351,34.5383165 3.68268414,35.5357729 C4.80548477,36.5332294 6.29875015,37.0825688 7.88739231,37.0825688 L9.57262468,37.0825688 L10.4401165,46.0147248 C10.4942361,46.5720413 11.0192938,47 11.6490717,47 C12.2788497,47 12.8039073,46.5720413 12.8580269,46.0147248 L13.7255187,37.0825688 L27.9032884,37.0825688 L27.9032884,38.1412546 C27.9032884,40.1365986 29.5924038,41.7868807 31.7667759,42.0259771 L31.7667759,44.6284404 C31.7667759,45.2238096 32.3101565,45.706422 32.9802208,45.706422 L44.9230676,45.706422 C45.5931319,45.706422 46.1365126,45.2238096 46.1365126,44.6284404 L46.1365126,42.0260849 C48.3108846,41.7869885 50,40.1365986 50,38.1413624 L50,7.56484404 C50,5.5695 48.3108846,3.91921789 46.1365126,3.68012156 Z M11.5457382,33.3591954 L11.0687023,28.6321839 L12.0229008,28.6321839 L11.5457382,33.3591954 L11.5457382,33.3591954 Z M20.0381679,22.2125356 C20.0381679,23.3492968 19.5375369,24.4185571 18.6286325,25.2233504 C17.7197281,26.0280372 16.5119843,26.4712644 15.2278772,26.4712644 L14.6946565,26.4712644 L15.5238304,17.9626437 C18.0388909,18.0986036 20.0381679,19.9523218 20.0381679,22.2125356 Z M6.72714717,15.8017241 C5.54244926,15.8017241 4.42788171,15.3942254 3.58976833,14.6551783 C2.75165495,13.9143902 2.29007634,12.9304087 2.29007634,11.8845134 C2.29007634,9.73929649 4.25360343,7.9922205 6.67723012,7.9683908 L7.44274809,15.8017241 L6.72714717,15.8017241 L6.72714717,15.8017241 Z M9.0579747,7.95013979 L10.322263,7.95013979 L10.322263,9.45767319 C10.322263,10.0523951 10.8700968,10.5344828 11.5459257,10.5344828 C12.2217546,10.5344828 12.7695884,10.0523951 12.7695884,9.45767319 L12.7695884,4.935073 C12.7695884,4.34035108 12.2217546,3.85826344 11.5459257,3.85826344 C10.8700968,3.85826344 10.322263,4.34035108 10.322263,4.935073 L10.322263,5.79652066 L8.84677052,5.79652066 L8.78925837,5.21009017 C8.72183455,4.52243958 8.9767235,3.8635398 9.50705891,3.35485496 C10.0373943,2.84617012 10.7614356,2.56609195 11.5458034,2.56609195 C12.3302935,2.56609195 13.0543347,2.8462778 13.5845478,3.35485496 C14.1147608,3.86343212 14.3697721,4.5223319 14.3023483,5.21009017 L12.2179613,26.4712644 L10.8738902,26.4712644 L9.0579747,7.95013979 L9.0579747,7.95013979 Z M7.885004,34.9798851 C6.95081071,34.9798851 6.07278956,34.649914 5.4128272,34.0506035 C4.7527443,33.451293 4.38931298,32.6542187 4.38931298,31.8060345 C4.38931298,30.0559295 5.95743176,28.6321839 7.885004,28.6321839 L8.74795752,28.6321839 L9.35114504,34.9798851 L7.885004,34.9798851 L7.885004,34.9798851 Z M47.7099237,34.9368741 L30.3547551,38.3563218 C30.3475445,38.2945457 30.3435115,38.2320041 30.3435115,38.1685879 L30.3435115,36.3756575 L47.7099237,32.954023 L47.7099237,34.9368741 Z M47.7099237,30.8347964 L30.3435115,34.1695402 L30.3435115,32.2370427 L47.7099237,28.9022989 L47.7099237,30.8347964 Z M47.7099237,26.6480148 L30.3435115,29.9827586 L30.3435115,28.0502611 L47.7099237,24.7155172 L47.7099237,26.6480148 L47.7099237,26.6480148 Z M47.7099237,22.4612332 L30.3435115,25.795977 L30.3435115,23.8634794 L47.7099237,20.5287356 L47.7099237,22.4612332 Z M47.7099237,18.3240028 L30.3435115,21.7442529 L30.3435115,19.7622041 L47.7099237,16.341954 L47.7099237,18.3240028 Z M47.7099237,14.1372212 L30.3435115,17.5574713 L30.3435115,15.5754225 L47.7099237,12.1551724 L47.7099237,14.1372212 L47.7099237,14.1372212 Z M47.7099237,9.95043959 L30.3435115,13.3706897 L30.3435115,11.3886409 L47.7099237,7.9683908 L47.7099237,9.95043959 Z M43.7022901,2.16091954 L43.7022901,3.64655172 L34.1603053,3.64655172 L34.1603053,2.16091954 L43.7022901,2.16091954 L43.7022901,2.16091954 Z M32.3259309,5.80747126 L45.6177592,5.80747126 C45.96059,5.80747126 46.2832615,5.88509544 46.5648855,6.02120654 L30.3435115,9.18390805 L30.3435115,7.56250881 C30.3435115,6.59478687 31.2328313,5.80747126 32.3259309,5.80747126 L32.3259309,5.80747126 Z M34.1603053,43.4885057 L34.1603053,42.0028736 L43.7022901,42.0028736 L43.7022901,43.4885057 L34.1603053,43.4885057 Z M45.7113128,39.841954 L33.5877863,39.841954 L47.7099237,37.1408046 L47.7099237,38.1061236 C47.7099237,39.0632548 46.8133403,39.841954 45.7113128,39.841954 Z" id="Shape" fill="#000000" fill-rule="nonzero"></path>
                    </g>
                </g>
            </g>
        </g>
    </g>
</svg>