<?xml version="1.0" encoding="UTF-8"?>
<svg width="128px" height="128px" viewBox="0 0 128 128" version="1.1" xmlns="http://www.w3.org/2000/svg" xmlns:xlink="http://www.w3.org/1999/xlink">
    <title>startButtonShopping2</title>
    <defs>
        <circle id="path-1" cx="57" cy="57" r="57"></circle>
        <filter x="-9.2%" y="-9.2%" width="118.4%" height="118.4%" filterUnits="objectBoundingBox" id="filter-2">
            <feOffset dx="0" dy="0" in="SourceAlpha" result="shadowOffsetOuter1"></feOffset>
            <feGaussianBlur stdDeviation="3.5" in="shadowOffsetOuter1" result="shadowBlurOuter1"></feGaussianBlur>
            <feColorMatrix values="0 0 0 0 0.898039216   0 0 0 0 0.631372549   0 0 0 0 0.439215686  0 0 0 0.96246722 0" type="matrix" in="shadowBlurOuter1"></feColorMatrix>
        </filter>
        <filter id="filter-3">
            <feColorMatrix in="SourceGraphic" type="matrix" values="0 0 0 0 1.000000 0 0 0 0 0.984314 0 0 0 0 0.964706 0 0 0 1.000000 0"></feColorMatrix>
        </filter>
    </defs>
    <g id="UX-Design" stroke="none" stroke-width="1" fill="none" fill-rule="evenodd">
        <g id="Artboard" transform="translate(-954.000000, -298.000000)">
            <g id="Group" transform="translate(961.000000, 305.000000)">
                <g id="teal-medium-copy-7">
                    <use fill="black" fill-opacity="1" filter="url(#filter-2)" xlink:href="#path-1"></use>
                    <use fill="#AA3D39" fill-rule="evenodd" xlink:href="#path-1"></use>
                </g>
                <path d="M29.2675,79.15 C30.5475,79.15 31.555,78.865 32.29,78.295 C33.025,77.725 33.3925,76.945 33.3925,75.955 C33.3925,74.485 32.5425,73.485 30.8425,72.955 L30.8425,72.955 L28.5925,72.25 C27.6125,71.92 27.1225,71.41 27.1225,70.72 C27.1225,70.2 27.32,69.7925 27.715,69.4975 C28.11,69.2025 28.6625,69.055 29.3725,69.055 C29.9325,69.055 30.4075,69.15 30.7975,69.34 C31.1875,69.53 31.5275,69.79 31.8175,70.12 C31.9075,70.21 31.9675,70.255 31.9975,70.255 C32.0375,70.255 32.0775,70.24 32.1175,70.21 L32.1175,70.21 L32.9725,69.55 C33.0225,69.51 33.0475,69.46 33.0475,69.4 C33.0475,69.34 33.0225,69.285 32.9725,69.235 C32.5725,68.765 32.06,68.395 31.435,68.125 C30.81,67.855 30.1125,67.72 29.3425,67.72 C28.5625,67.72 27.875,67.8525 27.28,68.1175 C26.685,68.3825 26.2225,68.7575 25.8925,69.2425 C25.5625,69.7275 25.3975,70.285 25.3975,70.915 C25.3975,71.555 25.6,72.135 26.005,72.655 C26.41,73.175 27.0175,73.57 27.8275,73.84 L27.8275,73.84 L30.0925,74.575 C30.6825,74.785 31.09,75.0125 31.315,75.2575 C31.54,75.5025 31.6525,75.805 31.6525,76.165 C31.6525,76.735 31.4325,77.155 30.9925,77.425 C30.5525,77.695 29.9425,77.83 29.1625,77.83 C28.4725,77.83 27.925,77.72 27.52,77.5 C27.115,77.28 26.7075,76.905 26.2975,76.375 C26.2475,76.305 26.1875,76.27 26.1175,76.27 C26.0475,76.27 25.9675,76.3 25.8775,76.36 L25.8775,76.36 L25.1425,76.87 C25.0425,76.94 24.9925,77.015 24.9925,77.095 C24.9925,77.115 25.0125,77.165 25.0525,77.245 C25.4525,77.855 26.0175,78.325 26.7475,78.655 C27.4775,78.985 28.3175,79.15 29.2675,79.15 Z M36.4975,79 C36.6875,79 36.7825,78.915 36.7825,78.745 L36.7825,78.745 L36.7825,73.225 C37.2325,72.815 37.615,72.525 37.93,72.355 C38.245,72.185 38.5975,72.1 38.9875,72.1 C39.4575,72.1 39.8075,72.2225 40.0375,72.4675 C40.2675,72.7125 40.3825,73.06 40.3825,73.51 L40.3825,73.51 L40.3825,78.76 C40.3825,78.92 40.4575,79 40.6075,79 L40.6075,79 L41.7175,79 C41.8875,79 41.9725,78.91 41.9725,78.73 L41.9725,78.73 L41.9725,73.21 C41.9725,72.49 41.7675,71.925 41.3575,71.515 C40.9475,71.105 40.3575,70.9 39.5875,70.9 C39.1175,70.9 38.6825,70.99 38.2825,71.17 C37.8825,71.35 37.4175,71.65 36.8875,72.07 C36.7875,72.16 36.7375,72.145 36.7375,72.025 L36.7375,72.025 L36.7375,68.065 C36.7375,67.935 36.6775,67.87 36.5575,67.87 L36.5575,67.87 L35.3725,67.87 C35.2525,67.87 35.1925,67.945 35.1925,68.095 L35.1925,68.095 L35.1925,78.76 C35.1925,78.84 35.21,78.9 35.245,78.94 C35.28,78.98 35.3425,79 35.4325,79 L35.4325,79 L36.4975,79 Z M47.4325,79.15 C48.1925,79.15 48.865,78.975 49.45,78.625 C50.035,78.275 50.49,77.79 50.815,77.17 C51.14,76.55 51.3025,75.845 51.3025,75.055 C51.3025,74.255 51.1425,73.54 50.8225,72.91 C50.5025,72.28 50.05,71.7875 49.465,71.4325 C48.88,71.0775 48.2075,70.9 47.4475,70.9 C46.6975,70.9 46.03,71.075 45.445,71.425 C44.86,71.775 44.4025,72.2675 44.0725,72.9025 C43.7425,73.5375 43.5775,74.26 43.5775,75.07 C43.5775,75.86 43.7375,76.565 44.0575,77.185 C44.3775,77.805 44.83,78.2875 45.415,78.6325 C46,78.9775 46.6725,79.15 47.4325,79.15 Z M47.4625,78.025 C46.7525,78.025 46.1975,77.76 45.7975,77.23 C45.3975,76.7 45.1975,75.965 45.1975,75.025 C45.1975,74.075 45.3975,73.3325 45.7975,72.7975 C46.1975,72.2625 46.7475,71.995 47.4475,71.995 C48.1475,71.995 48.695,72.2625 49.09,72.7975 C49.485,73.3325 49.6825,74.075 49.6825,75.025 C49.6825,75.975 49.4875,76.7125 49.0975,77.2375 C48.7075,77.7625 48.1625,78.025 47.4625,78.025 Z M54.3925,81.475 C54.5125,81.475 54.5725,81.405 54.5725,81.265 L54.5725,81.265 L54.5725,78.49 C54.5725,78.36 54.5975,78.295 54.6475,78.295 C54.6875,78.295 54.7475,78.33 54.8275,78.4 C55.4075,78.9 56.1025,79.15 56.9125,79.15 C57.5825,79.15 58.1725,78.9875 58.6825,78.6625 C59.1925,78.3375 59.5875,77.8575 59.8675,77.2225 C60.1475,76.5875 60.2875,75.82 60.2875,74.92 C60.2875,74.04 60.1475,73.3 59.8675,72.7 C59.5875,72.1 59.205,71.65 58.72,71.35 C58.235,71.05 57.6825,70.9 57.0625,70.9 C56.5025,70.9 56.055,70.995 55.72,71.185 C55.385,71.375 55.0675,71.62 54.7675,71.92 C54.6975,71.97 54.6525,71.995 54.6325,71.995 C54.5925,71.995 54.5725,71.955 54.5725,71.875 L54.5725,71.875 L54.5725,71.29 C54.5725,71.13 54.4875,71.05 54.3175,71.05 L54.3175,71.05 L53.2675,71.05 C53.1675,71.05 53.095,71.07 53.05,71.11 C53.005,71.15 52.9825,71.22 52.9825,71.32 L52.9825,71.32 L52.9825,81.265 C52.9825,81.405 53.0475,81.475 53.1775,81.475 L53.1775,81.475 L54.3925,81.475 Z M56.4175,78.07 C56.0675,78.07 55.745,77.9925 55.45,77.8375 C55.155,77.6825 54.8625,77.455 54.5725,77.155 L54.5725,77.155 L54.5725,73.54 C54.5725,73.3 54.655,73.0575 54.82,72.8125 C54.985,72.5675 55.215,72.3675 55.51,72.2125 C55.805,72.0575 56.1325,71.98 56.4925,71.98 C57.1425,71.98 57.6675,72.22 58.0675,72.7 C58.4675,73.18 58.6675,73.92 58.6675,74.92 C58.6675,75.95 58.465,76.7325 58.06,77.2675 C57.655,77.8025 57.1075,78.07 56.4175,78.07 Z M63.4075,81.475 C63.5275,81.475 63.5875,81.405 63.5875,81.265 L63.5875,81.265 L63.5875,78.49 C63.5875,78.36 63.6125,78.295 63.6625,78.295 C63.7025,78.295 63.7625,78.33 63.8425,78.4 C64.4225,78.9 65.1175,79.15 65.9275,79.15 C66.5975,79.15 67.1875,78.9875 67.6975,78.6625 C68.2075,78.3375 68.6025,77.8575 68.8825,77.2225 C69.1625,76.5875 69.3025,75.82 69.3025,74.92 C69.3025,74.04 69.1625,73.3 68.8825,72.7 C68.6025,72.1 68.22,71.65 67.735,71.35 C67.25,71.05 66.6975,70.9 66.0775,70.9 C65.5175,70.9 65.07,70.995 64.735,71.185 C64.4,71.375 64.0825,71.62 63.7825,71.92 C63.7125,71.97 63.6675,71.995 63.6475,71.995 C63.6075,71.995 63.5875,71.955 63.5875,71.875 L63.5875,71.875 L63.5875,71.29 C63.5875,71.13 63.5025,71.05 63.3325,71.05 L63.3325,71.05 L62.2825,71.05 C62.1825,71.05 62.11,71.07 62.065,71.11 C62.02,71.15 61.9975,71.22 61.9975,71.32 L61.9975,71.32 L61.9975,81.265 C61.9975,81.405 62.0625,81.475 62.1925,81.475 L62.1925,81.475 L63.4075,81.475 Z M65.4325,78.07 C65.0825,78.07 64.76,77.9925 64.465,77.8375 C64.17,77.6825 63.8775,77.455 63.5875,77.155 L63.5875,77.155 L63.5875,73.54 C63.5875,73.3 63.67,73.0575 63.835,72.8125 C64,72.5675 64.23,72.3675 64.525,72.2125 C64.82,72.0575 65.1475,71.98 65.5075,71.98 C66.1575,71.98 66.6825,72.22 67.0825,72.7 C67.4825,73.18 67.6825,73.92 67.6825,74.92 C67.6825,75.95 67.48,76.7325 67.075,77.2675 C66.67,77.8025 66.1225,78.07 65.4325,78.07 Z M72.3475,69.775 C72.4575,69.775 72.535,69.75 72.58,69.7 C72.625,69.65 72.6475,69.57 72.6475,69.46 L72.6475,69.46 L72.6475,68.11 C72.6475,68.04 72.6275,67.9825 72.5875,67.9375 C72.5475,67.8925 72.4975,67.87 72.4375,67.87 L72.4375,67.87 L71.1925,67.87 C71.0425,67.87 70.9675,67.955 70.9675,68.125 L70.9675,68.125 L70.9675,69.49 C70.9675,69.59 70.9875,69.6625 71.0275,69.7075 C71.0675,69.7525 71.1375,69.775 71.2375,69.775 L71.2375,69.775 L72.3475,69.775 Z M72.3025,79 C72.4125,79 72.49,78.98 72.535,78.94 C72.58,78.9 72.6025,78.825 72.6025,78.715 L72.6025,78.715 L72.6025,71.26 C72.6025,71.12 72.5425,71.05 72.4225,71.05 L72.4225,71.05 L71.2225,71.05 C71.1425,71.05 71.0875,71.0675 71.0575,71.1025 C71.0275,71.1375 71.0125,71.195 71.0125,71.275 L71.0125,71.275 L71.0125,78.76 C71.0125,78.85 71.0325,78.9125 71.0725,78.9475 C71.1125,78.9825 71.1825,79 71.2825,79 L71.2825,79 L72.3025,79 Z M76.0225,79 C76.1225,79 76.195,78.98 76.24,78.94 C76.285,78.9 76.3075,78.835 76.3075,78.745 L76.3075,78.745 L76.3075,73.225 C76.7475,72.825 77.13,72.5375 77.455,72.3625 C77.78,72.1875 78.1325,72.1 78.5125,72.1 C78.9825,72.1 79.335,72.2225 79.57,72.4675 C79.805,72.7125 79.9225,73.06 79.9225,73.51 L79.9225,73.51 L79.9225,78.76 C79.9225,78.92 79.9975,79 80.1475,79 L80.1475,79 L81.2575,79 C81.4275,79 81.5125,78.91 81.5125,78.73 L81.5125,78.73 L81.5125,73.195 C81.5125,72.495 81.3,71.9375 80.875,71.5225 C80.45,71.1075 79.8625,70.9 79.1125,70.9 C78.6425,70.9 78.2075,70.9975 77.8075,71.1925 C77.4075,71.3875 76.9475,71.695 76.4275,72.115 C76.3775,72.165 76.34,72.185 76.315,72.175 C76.29,72.165 76.2775,72.13 76.2775,72.07 L76.2775,72.07 L76.2775,71.245 C76.2775,71.115 76.2175,71.05 76.0975,71.05 L76.0975,71.05 L74.9125,71.05 C74.7825,71.05 74.7175,71.125 74.7175,71.275 L74.7175,71.275 L74.7175,78.76 C74.7175,78.92 74.7975,79 74.9575,79 L74.9575,79 L76.0225,79 Z M86.8075,81.625 C88.0775,81.625 89.06,81.405 89.755,80.965 C90.45,80.525 90.7975,79.92 90.7975,79.15 C90.7975,78.53 90.575,78.035 90.13,77.665 C89.685,77.295 89.0125,77.085 88.1125,77.035 L88.1125,77.035 L86.1175,76.915 C85.6675,76.895 85.3475,76.8525 85.1575,76.7875 C84.9675,76.7225 84.8725,76.615 84.8725,76.465 C84.8725,76.285 85.0225,76.14 85.3225,76.03 C85.6225,75.92 86.1025,75.865 86.7625,75.865 C87.8525,75.865 88.685,75.6375 89.26,75.1825 C89.835,74.7275 90.1225,74.145 90.1225,73.435 C90.1225,73.195 90.09,72.99 90.025,72.82 C89.96,72.65 89.9225,72.55 89.9125,72.52 C89.8925,72.44 89.905,72.3725 89.95,72.3175 C89.995,72.2625 90.0825,72.215 90.2125,72.175 C90.3125,72.145 90.4325,72.125 90.5725,72.115 C90.7125,72.105 90.8625,72.1 91.0225,72.1 C91.1925,72.1 91.2775,72 91.2775,71.8 L91.2775,71.8 L91.2775,71.125 C91.2775,70.945 91.1825,70.855 90.9925,70.855 C90.7625,70.855 90.51,70.9275 90.235,71.0725 C89.96,71.2175 89.7275,71.39 89.5375,71.59 C89.4775,71.65 89.4175,71.68 89.3575,71.68 C89.3175,71.68 89.2625,71.655 89.1925,71.605 C88.6425,71.155 87.8775,70.93 86.8975,70.93 C85.7775,70.93 84.91,71.1525 84.295,71.5975 C83.68,72.0425 83.3725,72.655 83.3725,73.435 C83.3725,73.895 83.4825,74.29 83.7025,74.62 C83.9225,74.95 84.2575,75.23 84.7075,75.46 C84.7675,75.49 84.7975,75.525 84.7975,75.565 C84.7975,75.595 84.7675,75.62 84.7075,75.64 C84.3075,75.78 83.995,75.955 83.77,76.165 C83.545,76.375 83.4325,76.6 83.4325,76.84 C83.4325,77.25 83.6825,77.57 84.1825,77.8 L84.2265816,77.8217347 C84.300051,77.8658163 84.2853571,77.9135714 84.1825,77.965 C83.7225,78.175 83.3725,78.41 83.1325,78.67 C82.8925,78.93 82.7725,79.23 82.7725,79.57 C82.7725,80.24 83.115,80.75 83.8,81.1 C84.485,81.45 85.4875,81.625 86.8075,81.625 Z M86.7625,74.965 C86.1425,74.965 85.665,74.83 85.33,74.56 C84.995,74.29 84.8275,73.915 84.8275,73.435 C84.8275,72.945 84.9975,72.5575 85.3375,72.2725 C85.6775,71.9875 86.1525,71.845 86.7625,71.845 C87.3825,71.845 87.8525,71.985 88.1725,72.265 C88.4925,72.545 88.6525,72.935 88.6525,73.435 C88.6525,73.925 88.495,74.3025 88.18,74.5675 C87.865,74.8325 87.3925,74.965 86.7625,74.965 Z M86.9575,80.74 C85.0775,80.74 84.1375,80.285 84.1375,79.375 C84.1375,79.145 84.21,78.9375 84.355,78.7525 C84.5,78.5675 84.68,78.425 84.895,78.325 C85.11,78.225 85.3125,78.18 85.5025,78.19 L85.5025,78.19 L87.9475,78.325 C88.8875,78.385 89.3575,78.74 89.3575,79.39 C89.3575,79.84 89.1525,80.1775 88.7425,80.4025 C88.3325,80.6275 87.7375,80.74 86.9575,80.74 Z M49.735,97 C49.855,97 49.9375,96.98 49.9825,96.94 C50.0275,96.9 50.05,96.825 50.05,96.715 L50.05,96.715 L50.05,86.095 C50.05,85.945 49.985,85.87 49.855,85.87 L49.855,85.87 L48.67,85.87 C48.54,85.87 48.475,85.945 48.475,86.095 L48.475,86.095 L48.445,96.76 C48.445,96.85 48.465,96.9125 48.505,96.9475 C48.545,96.9825 48.615,97 48.715,97 L48.715,97 L49.735,97 Z M53.5,87.775 C53.61,87.775 53.6875,87.75 53.7325,87.7 C53.7775,87.65 53.8,87.57 53.8,87.46 L53.8,87.46 L53.8,86.11 C53.8,86.04 53.78,85.9825 53.74,85.9375 C53.7,85.8925 53.65,85.87 53.59,85.87 L53.59,85.87 L52.345,85.87 C52.195,85.87 52.12,85.955 52.12,86.125 L52.12,86.125 L52.12,87.49 C52.12,87.59 52.14,87.6625 52.18,87.7075 C52.22,87.7525 52.29,87.775 52.39,87.775 L52.39,87.775 L53.5,87.775 Z M53.455,97 C53.565,97 53.6425,96.98 53.6875,96.94 C53.7325,96.9 53.755,96.825 53.755,96.715 L53.755,96.715 L53.755,89.26 C53.755,89.12 53.695,89.05 53.575,89.05 L53.575,89.05 L52.375,89.05 C52.295,89.05 52.24,89.0675 52.21,89.1025 C52.18,89.1375 52.165,89.195 52.165,89.275 L52.165,89.275 L52.165,96.76 C52.165,96.85 52.185,96.9125 52.225,96.9475 C52.265,96.9825 52.335,97 52.435,97 L52.435,97 L53.455,97 Z M58.63,97.15 C59.27,97.15 59.845,97.05 60.355,96.85 C60.865,96.65 61.2625,96.3675 61.5475,96.0025 C61.8325,95.6375 61.975,95.215 61.975,94.735 C61.975,94.225 61.8075,93.7825 61.4725,93.4075 C61.1375,93.0325 60.62,92.755 59.92,92.575 L59.92,92.575 L58.075,92.05 C57.655,91.93 57.365,91.79 57.205,91.63 C57.045,91.47 56.965,91.29 56.965,91.09 C56.965,90.74 57.125,90.4625 57.445,90.2575 C57.765,90.0525 58.175,89.95 58.675,89.95 C59.125,89.95 59.52,90.0375 59.86,90.2125 C60.2,90.3875 60.475,90.62 60.685,90.91 C60.735,90.96 60.79,90.985 60.85,90.985 C60.89,90.985 60.92,90.98 60.94,90.97 L60.94,90.97 L61.72,90.565 C61.77,90.535 61.795,90.5 61.795,90.46 C61.795,90.42 61.775,90.37 61.735,90.31 C61.465,89.89 61.06,89.55 60.52,89.29 C59.98,89.03 59.37,88.9 58.69,88.9 C58.06,88.9 57.5075,89.0025 57.0325,89.2075 C56.5575,89.4125 56.1875,89.6975 55.9225,90.0625 C55.6575,90.4275 55.525,90.85 55.525,91.33 C55.525,91.86 55.695,92.3 56.035,92.65 C56.375,93 56.915,93.265 57.655,93.445 L57.655,93.445 L59.185,93.835 C59.655,93.955 59.9925,94.1025 60.1975,94.2775 C60.4025,94.4525 60.505,94.665 60.505,94.915 C60.505,95.265 60.325,95.5425 59.965,95.7475 C59.605,95.9525 59.15,96.055 58.6,96.055 C57.56,96.055 56.775,95.655 56.245,94.855 C56.215,94.815 56.175,94.795 56.125,94.795 C56.085,94.795 56.035,94.81 55.975,94.84 L55.975,94.84 L55.24,95.23 C55.19,95.26 55.165,95.305 55.165,95.365 C55.165,95.405 55.18,95.45 55.21,95.5 C55.47,95.99 55.905,96.3875 56.515,96.6925 C57.125,96.9975 57.83,97.15 58.63,97.15 Z M66.355,97 C67.055,97 67.565,96.975 67.885,96.925 C68.035,96.895 68.11,96.81 68.11,96.67 L68.11,96.67 L68.11,96.025 C68.11,95.905 68.05,95.845 67.93,95.845 L67.93,95.845 L66.97,95.845 C66.63,95.845 66.3825,95.765 66.2275,95.605 C66.0725,95.445 65.995,95.155 65.995,94.735 L65.995,94.735 L65.995,90.34 C65.995,90.24 66.04,90.19 66.13,90.19 L66.13,90.19 L67.93,90.19 C68.07,90.19 68.14,90.13 68.14,90.01 L68.14,90.01 L68.14,89.215 C68.14,89.105 68.08,89.05 67.96,89.05 L67.96,89.05 L66.16,89.05 C66.07,89.05 66.025,89.005 66.025,88.915 L66.025,88.915 L66.025,86.59 C66.025,86.43 65.96,86.35 65.83,86.35 L65.83,86.35 L64.795,86.35 C64.695,86.35 64.635,86.42 64.615,86.56 L64.615,86.56 L64.435,88.915 C64.435,89.005 64.395,89.05 64.315,89.05 L64.315,89.05 L63.115,89.05 C62.995,89.05 62.935,89.105 62.935,89.215 L62.935,89.215 L62.935,90.01 C62.935,90.13 63,90.19 63.13,90.19 L63.13,90.19 L64.255,90.19 C64.355,90.19 64.405,90.25 64.405,90.37 L64.405,90.37 L64.405,95.125 C64.405,95.765 64.565,96.2375 64.885,96.5425 C65.205,96.8475 65.695,97 66.355,97 Z" id="Shoppinglist" fill="#FFFBF6" fill-rule="nonzero"></path>
                <g filter="url(#filter-3)" id="shopping-cart">
                    <g transform="translate(36.000000, 18.000000)">
                        <path d="M13.5,34 C11.014664,34 9,36.0147597 9,38.5 C9,40.985336 11.0147597,43 13.5,43 C15.985336,43 18,40.9852403 18,38.5 C18.0000957,36.0147597 15.985336,34 13.5,34 Z M13.5,41.0000744 C12.119279,41.0000744 11.0000213,39.8808167 11.0000213,38.5000957 C11.0000213,37.1193747 12.119279,36.000117 13.5,36.000117 C14.880721,36.000117 15.9999787,37.1193747 15.9999787,38.5000957 C16.0000744,39.8808167 14.880721,41.0000744 13.5,41.0000744 Z" id="Shape" fill="#000000" fill-rule="nonzero"></path>
                        <path d="M32.5,34 C30.014664,34 28,36.0147597 28,38.5 C28,40.985336 30.0147597,43 32.5,43 C34.9852403,43 37,40.9852403 37,38.5 C37,36.0147597 34.985336,34 32.5,34 Z M32.5,41.0000744 C31.119279,41.0000744 30.0000213,39.8808167 30.0000213,38.5000957 C30.0000213,37.1193747 31.119279,36.000117 32.5,36.000117 C33.880721,36.000117 34.9999787,37.1193747 34.9999787,38.5000957 C35.0000744,39.8808167 33.880721,41.0000744 32.5,41.0000744 Z" id="Shape" fill="#000000" fill-rule="nonzero"></path>
                        <path d="M42.7965587,7.59024017 C42.5888107,7.36648321 42.3045893,7.22641154 41.9985048,7.19675927 L10.2537684,6.37858631 L9,2.9672162 C8.36749527,1.15899264 6.27931598,0.0202388498 4.33950752,-3.07309733e-13 L0.997591228,-3.07309733e-13 C0.446619941,-3.07309733e-13 0,0.986673132 0,1.52992151 C0,2.0731699 0.446619941,2.9672162 0.997591228,2.9672162 L4.33950752,2.9672162 C5.42416959,2.99084388 6.37927559,3.67755276 6.73376466,4.68855391 L12.5697068,21.5 L12.5697068,23.0168492 C11.7315545,24.6065003 11.7315545,27.7605603 12.5697068,29.0327838 C13.3998394,30.282321 15.2452256,31.5643211 16.7595135,31.6092231 L36.1627536,31.6092231 C36.7137249,31.6092231 37,31.0310901 37,30.4878417 C37,29.9445933 36.7137249,29.0327838 36.1627536,29.0327838 L16.7595135,29.0327838 C15.9043671,29.0116977 15.1171971,28.5681375 14.6645624,27.8524353 C14.2169877,27.1454875 14.1250478,26.274558 14.4151885,25.4917382 L14.8142632,24.6065003 L35.8135155,22.4425436 C38.120129,22.1920526 40.0175477,20.5379267 40.5520977,18.3113708 L42.9463549,8.42615173 C43.0542387,8.14148996 42.9969553,7.82133959 42.7965587,7.59024017 Z M38.2146092,17.674972 C37.8907668,19.1082591 36.4845747,19.8567153 34.9999787,19.9727827 L15.1539297,22 L11.0000213,9.38758191 L39.739972,9.97535267 L38.2146092,17.674972 Z" id="Shape" fill="#000000" fill-rule="nonzero"></path>
                    </g>
                </g>
            </g>
        </g>
    </g>
</svg>