<?xml version="1.0" encoding="UTF-8"?>
<svg width="128px" height="128px" viewBox="0 0 128 128" version="1.1" xmlns="http://www.w3.org/2000/svg" xmlns:xlink="http://www.w3.org/1999/xlink">
    <title>startButtonFabricCalc2</title>
    <defs>
        <circle id="path-1" cx="57" cy="57" r="57"></circle>
        <filter x="-9.2%" y="-9.2%" width="118.4%" height="118.4%" filterUnits="objectBoundingBox" id="filter-2">
            <feOffset dx="0" dy="0" in="SourceAlpha" result="shadowOffsetOuter1"></feOffset>
            <feGaussianBlur stdDeviation="3.5" in="shadowOffsetOuter1" result="shadowBlurOuter1"></feGaussianBlur>
            <feColorMatrix values="0 0 0 0 0.898039216   0 0 0 0 0.631372549   0 0 0 0 0.439215686  0 0 0 0.96246722 0" type="matrix" in="shadowBlurOuter1"></feColorMatrix>
        </filter>
        <filter id="filter-3">
            <feColorMatrix in="SourceGraphic" type="matrix" values="0 0 0 0 1.000000 0 0 0 0 0.984314 0 0 0 0 0.964706 0 0 0 1.000000 0"></feColorMatrix>
        </filter>
    </defs>
    <g id="UX-Design" stroke="none" stroke-width="1" fill="none" fill-rule="evenodd">
        <g id="Artboard" transform="translate(-1085.000000, -298.000000)">
            <g id="Group" transform="translate(1092.000000, 305.000000)">
                <g id="teal-medium-copy-8">
                    <use fill="black" fill-opacity="1" filter="url(#filter-2)" xlink:href="#path-1"></use>
                    <use fill="#AA3D39" fill-rule="evenodd" xlink:href="#path-1"></use>
                </g>
                <path d="M38.8775,75 C38.9775,75 39.0475,74.9825 39.0875,74.9475 C39.1275,74.9125 39.1475,74.85 39.1475,74.76 L39.1475,74.76 L39.1475,70.395 C39.1475,70.275 39.2075,70.215 39.3275,70.215 L39.3275,70.215 L43.1075,70.215 C43.1775,70.215 43.225,70.2025 43.25,70.1775 C43.275,70.1525 43.2875,70.11 43.2875,70.05 L43.2875,70.05 L43.2875,69.06 C43.2875,68.94 43.2275,68.88 43.1075,68.88 L43.1075,68.88 L39.3425,68.88 C39.2125,68.88 39.1475,68.82 39.1475,68.7 L39.1475,68.7 L39.1475,65.43 C39.1475,65.36 39.165,65.31 39.2,65.28 C39.235,65.25 39.2925,65.235 39.3725,65.235 L39.3725,65.235 L44.3375,65.235 C44.4875,65.235 44.5625,65.16 44.5625,65.01 L44.5625,65.01 L44.5775,64.065 C44.5775,63.935 44.5175,63.87 44.3975,63.87 L44.3975,63.87 L37.5425,63.87 C37.4025,63.87 37.3325,63.945 37.3325,64.095 L37.3325,64.095 L37.3325,74.76 C37.3325,74.85 37.35,74.9125 37.385,74.9475 C37.42,74.9825 37.4875,75 37.5875,75 L37.5875,75 L38.8775,75 Z M46.8875,75.15 C47.8675,75.15 48.7225,74.8 49.4525,74.1 C49.5325,74.04 49.5875,74.01 49.6175,74.01 C49.6575,74.01 49.6875,74.05 49.7075,74.13 L49.7075,74.13 L49.7375,74.7 C49.7575,74.9 49.8375,75 49.9775,75 L49.9775,75 L50.9825,75 C51.0625,75 51.12,74.9825 51.155,74.9475 C51.19,74.9125 51.2075,74.845 51.2075,74.745 L51.2075,74.745 L51.2075,69.45 C51.2075,68.65 50.9475,68.025 50.4275,67.575 C49.9075,67.125 49.1225,66.9 48.0725,66.9 C47.2625,66.9 46.57,67.0475 45.995,67.3425 C45.42,67.6375 44.9925,68.055 44.7125,68.595 C44.6825,68.665 44.6675,68.72 44.6675,68.76 C44.6675,68.82 44.6975,68.86 44.7575,68.88 L44.7575,68.88 L45.7775,69.18 C45.8475,69.2 45.9,69.2025 45.935,69.1875 C45.97,69.1725 46.0025,69.135 46.0325,69.075 C46.5225,68.335 47.1775,67.965 47.9975,67.965 C48.5175,67.965 48.9275,68.1075 49.2275,68.3925 C49.5275,68.6775 49.6775,69.065 49.6775,69.555 L49.6775,69.555 L49.6775,69.93 C49.6775,70.06 49.5975,70.135 49.4375,70.155 L49.4375,70.155 L48.4625,70.23 C47.1625,70.29 46.16,70.56 45.455,71.04 C44.75,71.52 44.3975,72.165 44.3975,72.975 C44.3975,73.635 44.62,74.1625 45.065,74.5575 C45.51,74.9525 46.1175,75.15 46.8875,75.15 Z M47.5025,74.04 C47.0325,74.04 46.6575,73.9275 46.3775,73.7025 C46.0975,73.4775 45.9575,73.17 45.9575,72.78 C45.9575,72.28 46.2,71.8875 46.685,71.6025 C47.17,71.3175 47.8275,71.15 48.6575,71.1 L48.6575,71.1 L49.4675,71.04 C49.6075,71.03 49.6775,71.105 49.6775,71.265 L49.6775,71.265 L49.6775,72.435 C49.6775,72.785 49.4625,73.135 49.0325,73.485 C48.5525,73.855 48.0425,74.04 47.5025,74.04 Z M57.0875,75.15 C58.1675,75.15 59.0075,74.7775 59.6075,74.0325 C60.2075,73.2875 60.5075,72.27 60.5075,70.98 C60.5075,69.76 60.235,68.775 59.69,68.025 C59.145,67.275 58.3525,66.9 57.3125,66.9 C56.4225,66.9 55.6575,67.205 55.0175,67.815 C54.9475,67.865 54.8925,67.89 54.8525,67.89 C54.8025,67.89 54.7775,67.835 54.7775,67.725 L54.7775,67.725 L54.7775,64.095 C54.7775,63.945 54.7175,63.87 54.5975,63.87 L54.5975,63.87 L53.3975,63.87 C53.2575,63.87 53.1875,63.945 53.1875,64.095 L53.1875,64.095 L53.1875,74.73 C53.1875,74.83 53.2075,74.9 53.2475,74.94 C53.2875,74.98 53.3575,75 53.4575,75 L53.4575,75 L54.0875,75 C54.1875,75 54.2575,74.98 54.2975,74.94 C54.3375,74.9 54.3675,74.835 54.3875,74.745 L54.3875,74.745 L54.5075,74.01 C54.5275,73.93 54.5475,73.89 54.5675,73.89 C54.5875,73.89 54.6225,73.915 54.6725,73.965 C54.9025,74.275 55.22,74.55 55.625,74.79 C56.03,75.03 56.5175,75.15 57.0875,75.15 Z M56.7275,74.085 C56.3975,74.085 56.0825,74.0075 55.7825,73.8525 C55.4825,73.6975 55.24,73.4825 55.055,73.2075 C54.87,72.9325 54.7775,72.63 54.7775,72.3 L54.7775,72.3 L54.7775,69 C55.0375,68.7 55.34,68.4575 55.685,68.2725 C56.03,68.0875 56.4025,67.995 56.8025,67.995 C57.4725,67.995 57.985,68.2525 58.34,68.7675 C58.695,69.2825 58.8725,70.03 58.8725,71.01 C58.8725,72.04 58.6775,72.81 58.2875,73.32 C57.8975,73.83 57.3775,74.085 56.7275,74.085 Z M63.5225,75 C63.7125,75 63.8075,74.915 63.8075,74.745 L63.8075,74.745 L63.8075,69.96 C63.8075,69.7 63.9125,69.445 64.1225,69.195 C64.3325,68.945 64.5925,68.7425 64.9025,68.5875 C65.2125,68.4325 65.5075,68.355 65.7875,68.355 C66.1275,68.355 66.3925,68.38 66.5825,68.43 C66.6925,68.45 66.7475,68.4 66.7475,68.28 L66.7475,68.28 L66.7475,67.11 C66.7475,66.97 66.5725,66.9 66.2225,66.9 C65.8425,66.9 65.455,67.015 65.06,67.245 C64.665,67.475 64.2825,67.805 63.9125,68.235 C63.8725,68.285 63.835,68.305 63.8,68.295 C63.765,68.285 63.7475,68.25 63.7475,68.19 L63.7475,68.19 L63.7475,67.245 C63.7475,67.115 63.6875,67.05 63.5675,67.05 L63.5675,67.05 L62.4125,67.05 C62.2825,67.05 62.2175,67.125 62.2175,67.275 L62.2175,67.275 L62.2175,74.76 C62.2175,74.92 62.2975,75 62.4575,75 L62.4575,75 L63.5225,75 Z M69.4925,65.775 C69.6025,65.775 69.68,65.75 69.725,65.7 C69.77,65.65 69.7925,65.57 69.7925,65.46 L69.7925,65.46 L69.7925,64.11 C69.7925,64.04 69.7725,63.9825 69.7325,63.9375 C69.6925,63.8925 69.6425,63.87 69.5825,63.87 L69.5825,63.87 L68.3375,63.87 C68.1875,63.87 68.1125,63.955 68.1125,64.125 L68.1125,64.125 L68.1125,65.49 C68.1125,65.59 68.1325,65.6625 68.1725,65.7075 C68.2125,65.7525 68.2825,65.775 68.3825,65.775 L68.3825,65.775 L69.4925,65.775 Z M69.4475,75 C69.5575,75 69.635,74.98 69.68,74.94 C69.725,74.9 69.7475,74.825 69.7475,74.715 L69.7475,74.715 L69.7475,67.26 C69.7475,67.12 69.6875,67.05 69.5675,67.05 L69.5675,67.05 L68.3675,67.05 C68.2875,67.05 68.2325,67.0675 68.2025,67.1025 C68.1725,67.1375 68.1575,67.195 68.1575,67.275 L68.1575,67.275 L68.1575,74.76 C68.1575,74.85 68.1775,74.9125 68.2175,74.9475 C68.2575,74.9825 68.3275,75 68.4275,75 L68.4275,75 L69.4475,75 Z M75.2675,75.15 C76.0775,75.15 76.755,74.9525 77.3,74.5575 C77.845,74.1625 78.2575,73.67 78.5375,73.08 C78.5875,72.96 78.5675,72.885 78.4775,72.855 L78.4775,72.855 L77.6825,72.615 C77.6325,72.595 77.5925,72.59 77.5625,72.6 C77.5325,72.61 77.5025,72.635 77.4725,72.675 C77.1925,73.135 76.89,73.48 76.565,73.71 C76.24,73.94 75.8525,74.055 75.4025,74.055 C74.6825,74.055 74.1125,73.79 73.6925,73.26 C73.2725,72.73 73.0625,71.985 73.0625,71.025 C73.0625,70.075 73.2675,69.335 73.6775,68.805 C74.0875,68.275 74.6425,68.01 75.3425,68.01 C75.7125,68.01 76.0275,68.1075 76.2875,68.3025 C76.5475,68.4975 76.8175,68.8 77.0975,69.21 C77.1375,69.29 77.1875,69.33 77.2475,69.33 L77.2475,69.33 L77.2925,69.33 L78.3575,69.15 C78.4475,69.13 78.4925,69.09 78.4925,69.03 C78.4925,68.98 78.4825,68.935 78.4625,68.895 C78.1925,68.305 77.7875,67.825 77.2475,67.455 C76.7075,67.085 76.0475,66.9 75.2675,66.9 C74.5375,66.9 73.8825,67.0775 73.3025,67.4325 C72.7225,67.7875 72.2675,68.28 71.9375,68.91 C71.6075,69.54 71.4425,70.255 71.4425,71.055 C71.4425,71.855 71.605,72.565 71.93,73.185 C72.255,73.805 72.7075,74.2875 73.2875,74.6325 C73.8675,74.9775 74.5275,75.15 75.2675,75.15 Z M27.0425,93.15 C27.8525,93.15 28.53,92.9525 29.075,92.5575 C29.62,92.1625 30.0325,91.67 30.3125,91.08 C30.3625,90.96 30.3425,90.885 30.2525,90.855 L30.2525,90.855 L29.4575,90.615 C29.4075,90.595 29.3675,90.59 29.3375,90.6 C29.3075,90.61 29.2775,90.635 29.2475,90.675 C28.9675,91.135 28.665,91.48 28.34,91.71 C28.015,91.94 27.6275,92.055 27.1775,92.055 C26.4575,92.055 25.8875,91.79 25.4675,91.26 C25.0475,90.73 24.8375,89.985 24.8375,89.025 C24.8375,88.075 25.0425,87.335 25.4525,86.805 C25.8625,86.275 26.4175,86.01 27.1175,86.01 C27.4875,86.01 27.8025,86.1075 28.0625,86.3025 C28.3225,86.4975 28.5925,86.8 28.8725,87.21 C28.9125,87.29 28.9625,87.33 29.0225,87.33 L29.0225,87.33 L29.0675,87.33 L30.1325,87.15 C30.2225,87.13 30.2675,87.09 30.2675,87.03 C30.2675,86.98 30.2575,86.935 30.2375,86.895 C29.9675,86.305 29.5625,85.825 29.0225,85.455 C28.4825,85.085 27.8225,84.9 27.0425,84.9 C26.3125,84.9 25.6575,85.0775 25.0775,85.4325 C24.4975,85.7875 24.0425,86.28 23.7125,86.91 C23.3825,87.54 23.2175,88.255 23.2175,89.055 C23.2175,89.855 23.38,90.565 23.705,91.185 C24.03,91.805 24.4825,92.2875 25.0625,92.6325 C25.6425,92.9775 26.3025,93.15 27.0425,93.15 Z M33.7925,93.15 C34.7725,93.15 35.6275,92.8 36.3575,92.1 C36.4375,92.04 36.4925,92.01 36.5225,92.01 C36.5625,92.01 36.5925,92.05 36.6125,92.13 L36.6125,92.13 L36.6425,92.7 C36.6625,92.9 36.7425,93 36.8825,93 L36.8825,93 L37.8875,93 C37.9675,93 38.025,92.9825 38.06,92.9475 C38.095,92.9125 38.1125,92.845 38.1125,92.745 L38.1125,92.745 L38.1125,87.45 C38.1125,86.65 37.8525,86.025 37.3325,85.575 C36.8125,85.125 36.0275,84.9 34.9775,84.9 C34.1675,84.9 33.475,85.0475 32.9,85.3425 C32.325,85.6375 31.8975,86.055 31.6175,86.595 C31.5875,86.665 31.5725,86.72 31.5725,86.76 C31.5725,86.82 31.6025,86.86 31.6625,86.88 L31.6625,86.88 L32.6825,87.18 C32.7525,87.2 32.805,87.2025 32.84,87.1875 C32.875,87.1725 32.9075,87.135 32.9375,87.075 C33.4275,86.335 34.0825,85.965 34.9025,85.965 C35.4225,85.965 35.8325,86.1075 36.1325,86.3925 C36.4325,86.6775 36.5825,87.065 36.5825,87.555 L36.5825,87.555 L36.5825,87.93 C36.5825,88.06 36.5025,88.135 36.3425,88.155 L36.3425,88.155 L35.3675,88.23 C34.0675,88.29 33.065,88.56 32.36,89.04 C31.655,89.52 31.3025,90.165 31.3025,90.975 C31.3025,91.635 31.525,92.1625 31.97,92.5575 C32.415,92.9525 33.0225,93.15 33.7925,93.15 Z M34.4075,92.04 C33.9375,92.04 33.5625,91.9275 33.2825,91.7025 C33.0025,91.4775 32.8625,91.17 32.8625,90.78 C32.8625,90.28 33.105,89.8875 33.59,89.6025 C34.075,89.3175 34.7325,89.15 35.5625,89.1 L35.5625,89.1 L36.3725,89.04 C36.5125,89.03 36.5825,89.105 36.5825,89.265 L36.5825,89.265 L36.5825,90.435 C36.5825,90.785 36.3675,91.135 35.9375,91.485 C35.4575,91.855 34.9475,92.04 34.4075,92.04 Z M41.3825,93 C41.5025,93 41.585,92.98 41.63,92.94 C41.675,92.9 41.6975,92.825 41.6975,92.715 L41.6975,92.715 L41.6975,82.095 C41.6975,81.945 41.6325,81.87 41.5025,81.87 L41.5025,81.87 L40.3175,81.87 C40.1875,81.87 40.1225,81.945 40.1225,82.095 L40.1225,82.095 L40.0925,92.76 C40.0925,92.85 40.1125,92.9125 40.1525,92.9475 C40.1925,92.9825 40.2625,93 40.3625,93 L40.3625,93 L41.3825,93 Z M47.2175,93.15 C48.0275,93.15 48.705,92.9525 49.25,92.5575 C49.795,92.1625 50.2075,91.67 50.4875,91.08 C50.5375,90.96 50.5175,90.885 50.4275,90.855 L50.4275,90.855 L49.6325,90.615 C49.5825,90.595 49.5425,90.59 49.5125,90.6 C49.4825,90.61 49.4525,90.635 49.4225,90.675 C49.1425,91.135 48.84,91.48 48.515,91.71 C48.19,91.94 47.8025,92.055 47.3525,92.055 C46.6325,92.055 46.0625,91.79 45.6425,91.26 C45.2225,90.73 45.0125,89.985 45.0125,89.025 C45.0125,88.075 45.2175,87.335 45.6275,86.805 C46.0375,86.275 46.5925,86.01 47.2925,86.01 C47.6625,86.01 47.9775,86.1075 48.2375,86.3025 C48.4975,86.4975 48.7675,86.8 49.0475,87.21 C49.0875,87.29 49.1375,87.33 49.1975,87.33 L49.1975,87.33 L49.2425,87.33 L50.3075,87.15 C50.3975,87.13 50.4425,87.09 50.4425,87.03 C50.4425,86.98 50.4325,86.935 50.4125,86.895 C50.1425,86.305 49.7375,85.825 49.1975,85.455 C48.6575,85.085 47.9975,84.9 47.2175,84.9 C46.4875,84.9 45.8325,85.0775 45.2525,85.4325 C44.6725,85.7875 44.2175,86.28 43.8875,86.91 C43.5575,87.54 43.3925,88.255 43.3925,89.055 C43.3925,89.855 43.555,90.565 43.88,91.185 C44.205,91.805 44.6575,92.2875 45.2375,92.6325 C45.8175,92.9775 46.4775,93.15 47.2175,93.15 Z M54.2525,93.15 C54.7125,93.15 55.1525,93.0575 55.5725,92.8725 C55.9925,92.6875 56.4475,92.37 56.9375,91.92 C57.0375,91.83 57.0875,91.845 57.0875,91.965 L57.0875,91.965 L57.0875,92.805 C57.0875,92.935 57.1475,93 57.2675,93 L57.2675,93 L58.4375,93 C58.5575,93 58.6175,92.93 58.6175,92.79 L58.6175,92.79 L58.6475,85.29 C58.6475,85.13 58.5675,85.05 58.4075,85.05 L58.4075,85.05 L57.3275,85.05 C57.1375,85.05 57.0425,85.135 57.0425,85.305 L57.0425,85.305 L57.0425,90.765 C56.2825,91.555 55.5575,91.95 54.8675,91.95 C54.4475,91.95 54.1125,91.8175 53.8625,91.5525 C53.6125,91.2875 53.4875,90.935 53.4875,90.495 L53.4875,90.495 L53.4875,85.29 C53.4875,85.13 53.4125,85.05 53.2625,85.05 L53.2625,85.05 L52.1675,85.05 C51.9875,85.05 51.8975,85.14 51.8975,85.32 L51.8975,85.32 L51.8975,90.825 C51.8975,91.525 52.1175,92.0875 52.5575,92.5125 C52.9975,92.9375 53.5625,93.15 54.2525,93.15 Z M62.0225,93 C62.1425,93 62.225,92.98 62.27,92.94 C62.315,92.9 62.3375,92.825 62.3375,92.715 L62.3375,92.715 L62.3375,82.095 C62.3375,81.945 62.2725,81.87 62.1425,81.87 L62.1425,81.87 L60.9575,81.87 C60.8275,81.87 60.7625,81.945 60.7625,82.095 L60.7625,82.095 L60.7325,92.76 C60.7325,92.85 60.7525,92.9125 60.7925,92.9475 C60.8325,92.9825 60.9025,93 61.0025,93 L61.0025,93 L62.0225,93 Z M66.4325,93.15 C67.4125,93.15 68.2675,92.8 68.9975,92.1 C69.0775,92.04 69.1325,92.01 69.1625,92.01 C69.2025,92.01 69.2325,92.05 69.2525,92.13 L69.2525,92.13 L69.2825,92.7 C69.3025,92.9 69.3825,93 69.5225,93 L69.5225,93 L70.5275,93 C70.6075,93 70.665,92.9825 70.7,92.9475 C70.735,92.9125 70.7525,92.845 70.7525,92.745 L70.7525,92.745 L70.7525,87.45 C70.7525,86.65 70.4925,86.025 69.9725,85.575 C69.4525,85.125 68.6675,84.9 67.6175,84.9 C66.8075,84.9 66.115,85.0475 65.54,85.3425 C64.965,85.6375 64.5375,86.055 64.2575,86.595 C64.2275,86.665 64.2125,86.72 64.2125,86.76 C64.2125,86.82 64.2425,86.86 64.3025,86.88 L64.3025,86.88 L65.3225,87.18 C65.3925,87.2 65.445,87.2025 65.48,87.1875 C65.515,87.1725 65.5475,87.135 65.5775,87.075 C66.0675,86.335 66.7225,85.965 67.5425,85.965 C68.0625,85.965 68.4725,86.1075 68.7725,86.3925 C69.0725,86.6775 69.2225,87.065 69.2225,87.555 L69.2225,87.555 L69.2225,87.93 C69.2225,88.06 69.1425,88.135 68.9825,88.155 L68.9825,88.155 L68.0075,88.23 C66.7075,88.29 65.705,88.56 65,89.04 C64.295,89.52 63.9425,90.165 63.9425,90.975 C63.9425,91.635 64.165,92.1625 64.61,92.5575 C65.055,92.9525 65.6625,93.15 66.4325,93.15 Z M67.0475,92.04 C66.5775,92.04 66.2025,91.9275 65.9225,91.7025 C65.6425,91.4775 65.5025,91.17 65.5025,90.78 C65.5025,90.28 65.745,89.8875 66.23,89.6025 C66.715,89.3175 67.3725,89.15 68.2025,89.1 L68.2025,89.1 L69.0125,89.04 C69.1525,89.03 69.2225,89.105 69.2225,89.265 L69.2225,89.265 L69.2225,90.435 C69.2225,90.785 69.0075,91.135 68.5775,91.485 C68.0975,91.855 67.5875,92.04 67.0475,92.04 Z M75.4475,93 C76.1475,93 76.6575,92.975 76.9775,92.925 C77.1275,92.895 77.2025,92.81 77.2025,92.67 L77.2025,92.67 L77.2025,92.025 C77.2025,91.905 77.1425,91.845 77.0225,91.845 L77.0225,91.845 L76.0625,91.845 C75.7225,91.845 75.475,91.765 75.32,91.605 C75.165,91.445 75.0875,91.155 75.0875,90.735 L75.0875,90.735 L75.0875,86.34 C75.0875,86.24 75.1325,86.19 75.2225,86.19 L75.2225,86.19 L77.0225,86.19 C77.1625,86.19 77.2325,86.13 77.2325,86.01 L77.2325,86.01 L77.2325,85.215 C77.2325,85.105 77.1725,85.05 77.0525,85.05 L77.0525,85.05 L75.2525,85.05 C75.1625,85.05 75.1175,85.005 75.1175,84.915 L75.1175,84.915 L75.1175,82.59 C75.1175,82.43 75.0525,82.35 74.9225,82.35 L74.9225,82.35 L73.8875,82.35 C73.7875,82.35 73.7275,82.42 73.7075,82.56 L73.7075,82.56 L73.5275,84.915 C73.5275,85.005 73.4875,85.05 73.4075,85.05 L73.4075,85.05 L72.2075,85.05 C72.0875,85.05 72.0275,85.105 72.0275,85.215 L72.0275,85.215 L72.0275,86.01 C72.0275,86.13 72.0925,86.19 72.2225,86.19 L72.2225,86.19 L73.3475,86.19 C73.4475,86.19 73.4975,86.25 73.4975,86.37 L73.4975,86.37 L73.4975,91.125 C73.4975,91.765 73.6575,92.2375 73.9775,92.5425 C74.2975,92.8475 74.7875,93 75.4475,93 Z M81.9725,93.15 C82.7325,93.15 83.405,92.975 83.99,92.625 C84.575,92.275 85.03,91.79 85.355,91.17 C85.68,90.55 85.8425,89.845 85.8425,89.055 C85.8425,88.255 85.6825,87.54 85.3625,86.91 C85.0425,86.28 84.59,85.7875 84.005,85.4325 C83.42,85.0775 82.7475,84.9 81.9875,84.9 C81.2375,84.9 80.57,85.075 79.985,85.425 C79.4,85.775 78.9425,86.2675 78.6125,86.9025 C78.2825,87.5375 78.1175,88.26 78.1175,89.07 C78.1175,89.86 78.2775,90.565 78.5975,91.185 C78.9175,91.805 79.37,92.2875 79.955,92.6325 C80.54,92.9775 81.2125,93.15 81.9725,93.15 Z M82.0025,92.025 C81.2925,92.025 80.7375,91.76 80.3375,91.23 C79.9375,90.7 79.7375,89.965 79.7375,89.025 C79.7375,88.075 79.9375,87.3325 80.3375,86.7975 C80.7375,86.2625 81.2875,85.995 81.9875,85.995 C82.6875,85.995 83.235,86.2625 83.63,86.7975 C84.025,87.3325 84.2225,88.075 84.2225,89.025 C84.2225,89.975 84.0275,90.7125 83.6375,91.2375 C83.2475,91.7625 82.7025,92.025 82.0025,92.025 Z M88.8275,93 C89.0175,93 89.1125,92.915 89.1125,92.745 L89.1125,92.745 L89.1125,87.96 C89.1125,87.7 89.2175,87.445 89.4275,87.195 C89.6375,86.945 89.8975,86.7425 90.2075,86.5875 C90.5175,86.4325 90.8125,86.355 91.0925,86.355 C91.4325,86.355 91.6975,86.38 91.8875,86.43 C91.9975,86.45 92.0525,86.4 92.0525,86.28 L92.0525,86.28 L92.0525,85.11 C92.0525,84.97 91.8775,84.9 91.5275,84.9 C91.1475,84.9 90.76,85.015 90.365,85.245 C89.97,85.475 89.5875,85.805 89.2175,86.235 C89.1775,86.285 89.14,86.305 89.105,86.295 C89.07,86.285 89.0525,86.25 89.0525,86.19 L89.0525,86.19 L89.0525,85.245 C89.0525,85.115 88.9925,85.05 88.8725,85.05 L88.8725,85.05 L87.7175,85.05 C87.5875,85.05 87.5225,85.125 87.5225,85.275 L87.5225,85.275 L87.5225,92.76 C87.5225,92.92 87.6025,93 87.7625,93 L87.7625,93 L88.8275,93 Z" id="Fabriccalculator" fill="#FFFBF6" fill-rule="nonzero"></path>
                <g filter="url(#filter-3)" id="measure-tape">
                    <g transform="translate(32.000000, 17.000000)">
                        <path d="M17.5,9 C12.253044,9 8,13.0291997 8,18 C8,22.9711494 12.253044,27 17.5,27 C22.7473243,27 27,22.9711494 27,18 C26.9937374,13.0319917 22.7440089,9.00593306 17.5,9 Z M17.4875488,24.2460937 C13.3800181,24.2460937 10.7290039,21.8913449 10.7290039,18 C10.7290039,14.1086552 13.3924693,11.5177002 17.5,11.5177002 C21.6075307,11.5177002 24.2460937,14.1086552 24.2460937,18 C24.212202,21.8697068 21.5846906,24.2412078 17.5,24.2460937 L17.4875488,24.2460937 Z" id="Shape" fill="#000000" fill-rule="nonzero"></path>
                        <path d="M48.9983974,29.0288086 L36.0576923,29.0288086 L36.0576923,18 C36.0576923,8.05892864 27.9858488,0 18.0288462,0 C8.0718435,0 0,8.05928576 0,18 C0,27.9410715 8.0718435,36 18.0288462,36 L35.0560897,36 C35.6091174,36 36.0576923,35.5521429 36.0576923,35 L36.0576923,31.71 L47.3400879,31.71 L47.3400879,35 C47.3400879,35.5521429 48.0758786,36 48.6289062,36 C49.1819339,36 50,35.5521429 50,35 L50,29.911377 C50,29.3595913 49.5514251,29.0288086 48.9983974,29.0288086 Z M33.3481445,33.5200195 L17.9886475,33.5200195 C9.13734252,33.5200195 2.62915039,26.7190398 2.62915039,17.881897 C2.62915039,9.04511124 9.17754121,2.63793945 18.0288462,2.63793945 C26.8801511,2.63793945 33.3481445,9.04511124 33.3481445,17.881897 L33.3481445,33.5200195 Z" id="Shape" fill="#000000" fill-rule="nonzero"></path>
                    </g>
                </g>
            </g>
        </g>
    </g>
</svg>